<svg width="0" height="0" style="position: absolute;" hidden>

    <symbol id="language" viewBox="0 0 24 24">
        <path d="M12 22C10.6333 22 9.34167 21.7373 8.125 21.212C6.90833 20.6873 5.846 19.9707 4.938 19.062C4.02933 18.154 3.31267 17.0917 2.788 15.875C2.26267 14.6583 2 13.3667 2 12C2 10.6167 2.26267 9.321 2.788 8.113C3.31267 6.90433 4.02933 5.846 4.938 4.938C5.846 4.02933 6.90833 3.31233 8.125 2.787C9.34167 2.26233 10.6333 2 12 2C13.3833 2 14.679 2.26233 15.887 2.787C17.0957 3.31233 18.154 4.02933 19.062 4.938C19.9707 5.846 20.6873 6.90433 21.212 8.113C21.7373 9.321 22 10.6167 22 12C22 13.3667 21.7373 14.6583 21.212 15.875C20.6873 17.0917 19.9707 18.154 19.062 19.062C18.154 19.9707 17.0957 20.6873 15.887 21.212C14.679 21.7373 13.3833 22 12 22ZM12 19.95C12.4333 19.35 12.8083 18.725 13.125 18.075C13.4417 17.425 13.7 16.7333 13.9 16H10.1C10.3 16.7333 10.5583 17.425 10.875 18.075C11.1917 18.725 11.5667 19.35 12 19.95ZM9.4 19.55C9.1 19 8.83767 18.429 8.613 17.837C8.38767 17.2457 8.2 16.6333 8.05 16H5.1C5.58333 16.8333 6.18733 17.5583 6.912 18.175C7.63733 18.7917 8.46667 19.25 9.4 19.55ZM14.6 19.55C15.5333 19.25 16.3623 18.7917 17.087 18.175C17.8123 17.5583 18.4167 16.8333 18.9 16H15.95C15.8 16.6333 15.6127 17.2457 15.388 17.837C15.1627 18.429 14.9 19 14.6 19.55ZM4.25 14H7.65C7.6 13.6667 7.56233 13.3373 7.537 13.012C7.51233 12.6873 7.5 12.35 7.5 12C7.5 11.65 7.51233 11.3127 7.537 10.988C7.56233 10.6627 7.6 10.3333 7.65 10H4.25C4.16667 10.3333 4.104 10.6627 4.062 10.988C4.02067 11.3127 4 11.65 4 12C4 12.35 4.02067 12.6873 4.062 13.012C4.104 13.3373 4.16667 13.6667 4.25 14ZM9.65 14H14.35C14.4 13.6667 14.4377 13.3373 14.463 13.012C14.4877 12.6873 14.5 12.35 14.5 12C14.5 11.65 14.4877 11.3127 14.463 10.988C14.4377 10.6627 14.4 10.3333 14.35 10H9.65C9.6 10.3333 9.56267 10.6627 9.538 10.988C9.51267 11.3127 9.5 11.65 9.5 12C9.5 12.35 9.51267 12.6873 9.538 13.012C9.56267 13.3373 9.6 13.6667 9.65 14ZM16.35 14H19.75C19.8333 13.6667 19.896 13.3373 19.938 13.012C19.9793 12.6873 20 12.35 20 12C20 11.65 19.9793 11.3127 19.938 10.988C19.896 10.6627 19.8333 10.3333 19.75 10H16.35C16.4 10.3333 16.4373 10.6627 16.462 10.988C16.4873 11.3127 16.5 11.65 16.5 12C16.5 12.35 16.4873 12.6873 16.462 13.012C16.4373 13.3373 16.4 13.6667 16.35 14ZM15.95 8H18.9C18.4167 7.16667 17.8123 6.44167 17.087 5.825C16.3623 5.20833 15.5333 4.75 14.6 4.45C14.9 5 15.1627 5.57067 15.388 6.162C15.6127 6.754 15.8 7.36667 15.95 8ZM10.1 8H13.9C13.7 7.26667 13.4417 6.575 13.125 5.925C12.8083 5.275 12.4333 4.65 12 4.05C11.5667 4.65 11.1917 5.275 10.875 5.925C10.5583 6.575 10.3 7.26667 10.1 8ZM5.1 8H8.05C8.2 7.36667 8.38767 6.754 8.613 6.162C8.83767 5.57067 9.1 5 9.4 4.45C8.46667 4.75 7.63733 5.20833 6.912 5.825C6.18733 6.44167 5.58333 7.16667 5.1 8Z" />
    </symbol>

    <symbol id="expand-more" viewBox="0 0 24 24">
        <path d="M12 15.375L6 9.37498L7.4 7.97498L12 12.575L16.6 7.97498L18 9.37498L12 15.375Z" />
    </symbol>

    <symbol id="login" viewBox="0 0 24 24">
        <path d="M12 21V19H19V5H12V3H19C19.55 3 20.021 3.19567 20.413 3.587C20.8043 3.979 21 4.45 21 5V19C21 19.55 20.8043 20.021 20.413 20.413C20.021 20.8043 19.55 21 19 21H12ZM10 17L8.625 15.55L11.175 13H3V11H11.175L8.625 8.45L10 7L15 12L10 17Z" />
    </symbol>

    <symbol id="account-circle" viewBox="0 0 24 24">
        <path d="M5.85 17.1C6.7 16.45 7.65 15.9373 8.7 15.562C9.75 15.1873 10.85 15 12 15C13.15 15 14.25 15.1873 15.3 15.562C16.35 15.9373 17.3 16.45 18.15 17.1C18.7333 16.4167 19.1877 15.6417 19.513 14.775C19.8377 13.9083 20 12.9833 20 12C20 9.78333 19.221 7.89567 17.663 6.337C16.1043 4.779 14.2167 4 12 4C9.78333 4 7.896 4.779 6.338 6.337C4.77933 7.89567 4 9.78333 4 12C4 12.9833 4.16267 13.9083 4.488 14.775C4.81267 15.6417 5.26667 16.4167 5.85 17.1ZM12 13C11.0167 13 10.1873 12.6627 9.512 11.988C8.83733 11.3127 8.5 10.4833 8.5 9.5C8.5 8.51667 8.83733 7.68733 9.512 7.012C10.1873 6.33733 11.0167 6 12 6C12.9833 6 13.8127 6.33733 14.488 7.012C15.1627 7.68733 15.5 8.51667 15.5 9.5C15.5 10.4833 15.1627 11.3127 14.488 11.988C13.8127 12.6627 12.9833 13 12 13ZM12 22C10.6167 22 9.31667 21.7373 8.1 21.212C6.88333 20.6873 5.825 19.975 4.925 19.075C4.025 18.175 3.31267 17.1167 2.788 15.9C2.26267 14.6833 2 13.3833 2 12C2 10.6167 2.26267 9.31667 2.788 8.1C3.31267 6.88333 4.025 5.825 4.925 4.925C5.825 4.025 6.88333 3.31233 8.1 2.787C9.31667 2.26233 10.6167 2 12 2C13.3833 2 14.6833 2.26233 15.9 2.787C17.1167 3.31233 18.175 4.025 19.075 4.925C19.975 5.825 20.6873 6.88333 21.212 8.1C21.7373 9.31667 22 10.6167 22 12C22 13.3833 21.7373 14.6833 21.212 15.9C20.6873 17.1167 19.975 18.175 19.075 19.075C18.175 19.975 17.1167 20.6873 15.9 21.212C14.6833 21.7373 13.3833 22 12 22ZM12 20C12.8833 20 13.7167 19.871 14.5 19.613C15.2833 19.3543 16 18.9833 16.65 18.5C16 18.0167 15.2833 17.6457 14.5 17.387C13.7167 17.129 12.8833 17 12 17C11.1167 17 10.2833 17.129 9.5 17.387C8.71667 17.6457 8 18.0167 7.35 18.5C8 18.9833 8.71667 19.3543 9.5 19.613C10.2833 19.871 11.1167 20 12 20ZM12 11C12.4333 11 12.7917 10.8583 13.075 10.575C13.3583 10.2917 13.5 9.93333 13.5 9.5C13.5 9.06667 13.3583 8.70833 13.075 8.425C12.7917 8.14167 12.4333 8 12 8C11.5667 8 11.2083 8.14167 10.925 8.425C10.6417 8.70833 10.5 9.06667 10.5 9.5C10.5 9.93333 10.6417 10.2917 10.925 10.575C11.2083 10.8583 11.5667 11 12 11Z" />
    </symbol>

    <symbol id="search" viewBox="0 0 24 24">
        <path d="M19.6 21L13.3 14.7C12.8 15.1 12.225 15.4167 11.575 15.65C10.925 15.8833 10.2333 16 9.5 16C7.68333 16 6.146 15.371 4.888 14.113C3.62933 12.8543 3 11.3167 3 9.5C3 7.68333 3.62933 6.14567 4.888 4.887C6.146 3.629 7.68333 3 9.5 3C11.3167 3 12.8543 3.629 14.113 4.887C15.371 6.14567 16 7.68333 16 9.5C16 10.2333 15.8833 10.925 15.65 11.575C15.4167 12.225 15.1 12.8 14.7 13.3L21 19.6L19.6 21ZM9.5 14C10.75 14 11.8127 13.5627 12.688 12.688C13.5627 11.8127 14 10.75 14 9.5C14 8.25 13.5627 7.18733 12.688 6.312C11.8127 5.43733 10.75 5 9.5 5C8.25 5 7.18733 5.43733 6.312 6.312C5.43733 7.18733 5 8.25 5 9.5C5 10.75 5.43733 11.8127 6.312 12.688C7.18733 13.5627 8.25 14 9.5 14Z" />
    </symbol>

    <symbol id="home" viewBox="0 0 24 24">
        <path d="M6 19H9V13H15V19H18V10L12 5.5L6 10V19ZM4 21V9L12 3L20 9V21H13V15H11V21H4Z" />
    </symbol>

    <symbol id="facebook" viewBox="0 0 24 24">
        <path d="M12 2.04004C6.5 2.04004 2 6.53004 2 12.06C2 17.06 5.66 21.21 10.44 21.96V14.96H7.9V12.06H10.44V9.85004C10.44 7.34004 11.93 5.96004 14.22 5.96004C15.31 5.96004 16.45 6.15004 16.45 6.15004V8.62004H15.19C13.95 8.62004 13.56 9.39004 13.56 10.18V12.06H16.34L15.89 14.96H13.56V21.96C15.9164 21.5879 18.0622 20.3856 19.6099 18.5701C21.1576 16.7546 22.0053 14.4457 22 12.06C22 6.53004 17.5 2.04004 12 2.04004Z" />
    </symbol>

    <symbol id="twitter" viewBox="0 0 24 24">
        <path d="M22.46 6C21.69 6.35 20.86 6.58 20 6.69C20.88 6.16 21.56 5.32 21.88 4.31C21.05 4.81 20.13 5.16 19.16 5.36C18.37 4.5 17.26 4 16 4C13.65 4 11.73 5.92 11.73 8.29C11.73 8.63 11.77 8.96 11.84 9.27C8.27998 9.09 5.10998 7.38 2.99998 4.79C2.62998 5.42 2.41998 6.16 2.41998 6.94C2.41998 8.43 3.16998 9.75 4.32998 10.5C3.61998 10.5 2.95998 10.3 2.37998 10C2.37998 10 2.37998 10 2.37998 10.03C2.37998 12.11 3.85998 13.85 5.81998 14.24C5.45998 14.34 5.07998 14.39 4.68998 14.39C4.41998 14.39 4.14998 14.36 3.88998 14.31C4.42998 16 5.99998 17.26 7.88998 17.29C6.42998 18.45 4.57998 19.13 2.55998 19.13C2.21998 19.13 1.87998 19.11 1.53998 19.07C3.43998 20.29 5.69998 21 8.11998 21C16 21 20.33 14.46 20.33 8.79C20.33 8.6 20.33 8.42 20.32 8.23C21.16 7.63 21.88 6.87 22.46 6Z" />
    </symbol>

    <symbol id="youtube" viewBox="0 0 24 24">
        <path d="M10 15L15.19 12L10 9V15ZM21.56 7.17C21.69 7.64 21.78 8.27 21.84 9.07C21.91 9.87 21.94 10.56 21.94 11.16L22 12C22 14.19 21.84 15.8 21.56 16.83C21.31 17.73 20.73 18.31 19.83 18.56C19.36 18.69 18.5 18.78 17.18 18.84C15.88 18.91 14.69 18.94 13.59 18.94L12 19C7.81 19 5.2 18.84 4.17 18.56C3.27 18.31 2.69 17.73 2.44 16.83C2.31 16.36 2.22 15.73 2.16 14.93C2.09 14.13 2.06 13.44 2.06 12.84L2 12C2 9.81 2.16 8.2 2.44 7.17C2.69 6.27 3.27 5.69 4.17 5.44C4.64 5.31 5.5 5.22 6.82 5.16C8.12 5.09 9.31 5.06 10.41 5.06L12 5C16.19 5 18.8 5.16 19.83 5.44C20.73 5.69 21.31 6.27 21.56 7.17Z" />
    </symbol>

    <symbol id="instagram" viewBox="0 0 24 24">
        <path d="M7.8 2H16.2C19.4 2 22 4.6 22 7.8V16.2C22 17.7383 21.3889 19.2135 20.3012 20.3012C19.2135 21.3889 17.7383 22 16.2 22H7.8C4.6 22 2 19.4 2 16.2V7.8C2 6.26174 2.61107 4.78649 3.69878 3.69878C4.78649 2.61107 6.26174 2 7.8 2M7.6 4C6.64522 4 5.72955 4.37928 5.05442 5.05442C4.37928 5.72955 4 6.64522 4 7.6V16.4C4 18.39 5.61 20 7.6 20H16.4C17.3548 20 18.2705 19.6207 18.9456 18.9456C19.6207 18.2705 20 17.3548 20 16.4V7.6C20 5.61 18.39 4 16.4 4H7.6ZM17.25 5.5C17.5815 5.5 17.8995 5.6317 18.1339 5.86612C18.3683 6.10054 18.5 6.41848 18.5 6.75C18.5 7.08152 18.3683 7.39946 18.1339 7.63388C17.8995 7.8683 17.5815 8 17.25 8C16.9185 8 16.6005 7.8683 16.3661 7.63388C16.1317 7.39946 16 7.08152 16 6.75C16 6.41848 16.1317 6.10054 16.3661 5.86612C16.6005 5.6317 16.9185 5.5 17.25 5.5ZM12 7C13.3261 7 14.5979 7.52678 15.5355 8.46447C16.4732 9.40215 17 10.6739 17 12C17 13.3261 16.4732 14.5979 15.5355 15.5355C14.5979 16.4732 13.3261 17 12 17C10.6739 17 9.40215 16.4732 8.46447 15.5355C7.52678 14.5979 7 13.3261 7 12C7 10.6739 7.52678 9.40215 8.46447 8.46447C9.40215 7.52678 10.6739 7 12 7M12 9C11.2044 9 10.4413 9.31607 9.87868 9.87868C9.31607 10.4413 9 11.2044 9 12C9 12.7956 9.31607 13.5587 9.87868 14.1213C10.4413 14.6839 11.2044 15 12 15C12.7956 15 13.5587 14.6839 14.1213 14.1213C14.6839 13.5587 15 12.7956 15 12C15 11.2044 14.6839 10.4413 14.1213 9.87868C13.5587 9.31607 12.7956 9 12 9Z" />
    </symbol>

    <symbol id="linkedin" viewBox="0 0 24 24">
        <path d="M19 3C19.5304 3 20.0391 3.21071 20.4142 3.58579C20.7893 3.96086 21 4.46957 21 5V19C21 19.5304 20.7893 20.0391 20.4142 20.4142C20.0391 20.7893 19.5304 21 19 21H5C4.46957 21 3.96086 20.7893 3.58579 20.4142C3.21071 20.0391 3 19.5304 3 19V5C3 4.46957 3.21071 3.96086 3.58579 3.58579C3.96086 3.21071 4.46957 3 5 3H19ZM18.5 18.5V13.2C18.5 12.3354 18.1565 11.5062 17.5452 10.8948C16.9338 10.2835 16.1046 9.94 15.24 9.94C14.39 9.94 13.4 10.46 12.92 11.24V10.13H10.13V18.5H12.92V13.57C12.92 12.8 13.54 12.17 14.31 12.17C14.6813 12.17 15.0374 12.3175 15.2999 12.5801C15.5625 12.8426 15.71 13.1987 15.71 13.57V18.5H18.5ZM6.88 8.56C7.32556 8.56 7.75288 8.383 8.06794 8.06794C8.383 7.75288 8.56 7.32556 8.56 6.88C8.56 5.95 7.81 5.19 6.88 5.19C6.43178 5.19 6.00193 5.36805 5.68499 5.68499C5.36805 6.00193 5.19 6.43178 5.19 6.88C5.19 7.81 5.95 8.56 6.88 8.56ZM8.27 18.5V10.13H5.5V18.5H8.27Z" />
    </symbol>

    <symbol id="arrow-right-alt" viewBox="0 0 24 24">
        <path d="M14 18L12.6 16.55L16.15 13H4V11H16.15L12.6 7.45L14 6L20 12L14 18Z" />
    </symbol>

    <symbol id="open-in-new" viewBox="0 0 24 24">
        <path d="M5 21C4.45 21 3.979 20.8043 3.587 20.413C3.19567 20.021 3 19.55 3 19V5C3 4.45 3.19567 3.979 3.587 3.587C3.979 3.19567 4.45 3 5 3H12V5H5V19H19V12H21V19C21 19.55 20.8043 20.021 20.413 20.413C20.021 20.8043 19.55 21 19 21H5ZM9.7 15.7L8.3 14.3L17.6 5H14V3H21V10H19V6.4L9.7 15.7Z" />
    </symbol>

    <symbol id="calendar-today" viewBox="0 0 24 24">
        <path d="M5 22C4.45 22 3.979 21.8043 3.587 21.413C3.19567 21.021 3 20.55 3 20V6C3 5.45 3.19567 4.97933 3.587 4.588C3.979 4.196 4.45 4 5 4H6V2H8V4H16V2H18V4H19C19.55 4 20.021 4.196 20.413 4.588C20.8043 4.97933 21 5.45 21 6V20C21 20.55 20.8043 21.021 20.413 21.413C20.021 21.8043 19.55 22 19 22H5ZM5 20H19V10H5V20ZM5 8H19V6H5V8Z" />
    </symbol>

    <symbol id="schedule" viewBox="0 0 24 24">
        <path d="M15.3 16.7L16.7 15.3L13 11.6V7H11V12.4L15.3 16.7ZM12 22C10.6167 22 9.31667 21.7373 8.1 21.212C6.88333 20.6873 5.825 19.975 4.925 19.075C4.025 18.175 3.31267 17.1167 2.788 15.9C2.26267 14.6833 2 13.3833 2 12C2 10.6167 2.26267 9.31667 2.788 8.1C3.31267 6.88333 4.025 5.825 4.925 4.925C5.825 4.025 6.88333 3.31233 8.1 2.787C9.31667 2.26233 10.6167 2 12 2C13.3833 2 14.6833 2.26233 15.9 2.787C17.1167 3.31233 18.175 4.025 19.075 4.925C19.975 5.825 20.6873 6.88333 21.212 8.1C21.7373 9.31667 22 10.6167 22 12C22 13.3833 21.7373 14.6833 21.212 15.9C20.6873 17.1167 19.975 18.175 19.075 19.075C18.175 19.975 17.1167 20.6873 15.9 21.212C14.6833 21.7373 13.3833 22 12 22ZM12 20C14.2167 20 16.1043 19.221 17.663 17.663C19.221 16.1043 20 14.2167 20 12C20 9.78333 19.221 7.89567 17.663 6.337C16.1043 4.779 14.2167 4 12 4C9.78333 4 7.896 4.779 6.338 6.337C4.77933 7.89567 4 9.78333 4 12C4 14.2167 4.77933 16.1043 6.338 17.663C7.896 19.221 9.78333 20 12 20Z" />
    </symbol>

    <symbol id="mail" viewBox="0 0 24 24">
        <path d="M4 20C3.45 20 2.97917 19.8042 2.5875 19.4125C2.19583 19.0208 2 18.55 2 18V6C2 5.45 2.19583 4.97917 2.5875 4.5875C2.97917 4.19583 3.45 4 4 4H20C20.55 4 21.0208 4.19583 21.4125 4.5875C21.8042 4.97917 22 5.45 22 6V18C22 18.55 21.8042 19.0208 21.4125 19.4125C21.0208 19.8042 20.55 20 20 20H4ZM12 13L4 8V18H20V8L12 13ZM12 11L20 6H4L12 11ZM4 8V6V18V8Z" />
    </symbol>

    <symbol id="share" viewBox="0 0 24 24">
        <path d="M18 22C17.1667 22 16.4583 21.7083 15.875 21.125C15.2917 20.5417 15 19.8333 15 19C15 18.8833 15.0083 18.7623 15.025 18.637C15.0417 18.5123 15.0667 18.4 15.1 18.3L8.05 14.2C7.76667 14.45 7.45 14.6457 7.1 14.787C6.75 14.929 6.38333 15 6 15C5.16667 15 4.45833 14.7083 3.875 14.125C3.29167 13.5417 3 12.8333 3 12C3 11.1667 3.29167 10.4583 3.875 9.875C4.45833 9.29167 5.16667 9 6 9C6.38333 9 6.75 9.07067 7.1 9.212C7.45 9.354 7.76667 9.55 8.05 9.8L15.1 5.7C15.0667 5.6 15.0417 5.48767 15.025 5.363C15.0083 5.23767 15 5.11667 15 5C15 4.16667 15.2917 3.45833 15.875 2.875C16.4583 2.29167 17.1667 2 18 2C18.8333 2 19.5417 2.29167 20.125 2.875C20.7083 3.45833 21 4.16667 21 5C21 5.83333 20.7083 6.54167 20.125 7.125C19.5417 7.70833 18.8333 8 18 8C17.6167 8 17.25 7.929 16.9 7.787C16.55 7.64567 16.2333 7.45 15.95 7.2L8.9 11.3C8.93333 11.4 8.95833 11.5123 8.975 11.637C8.99167 11.7623 9 11.8833 9 12C9 12.1167 8.99167 12.2373 8.975 12.362C8.95833 12.4873 8.93333 12.6 8.9 12.7L15.95 16.8C16.2333 16.55 16.55 16.354 16.9 16.212C17.25 16.0707 17.6167 16 18 16C18.8333 16 19.5417 16.2917 20.125 16.875C20.7083 17.4583 21 18.1667 21 19C21 19.8333 20.7083 20.5417 20.125 21.125C19.5417 21.7083 18.8333 22 18 22ZM18 6C18.2833 6 18.5207 5.90433 18.712 5.713C18.904 5.521 19 5.28333 19 5C19 4.71667 18.904 4.479 18.712 4.287C18.5207 4.09567 18.2833 4 18 4C17.7167 4 17.4793 4.09567 17.288 4.287C17.096 4.479 17 4.71667 17 5C17 5.28333 17.096 5.521 17.288 5.713C17.4793 5.90433 17.7167 6 18 6ZM6 13C6.28333 13 6.521 12.904 6.713 12.712C6.90433 12.5207 7 12.2833 7 12C7 11.7167 6.90433 11.479 6.713 11.287C6.521 11.0957 6.28333 11 6 11C5.71667 11 5.479 11.0957 5.287 11.287C5.09567 11.479 5 11.7167 5 12C5 12.2833 5.09567 12.5207 5.287 12.712C5.479 12.904 5.71667 13 6 13ZM18 20C18.2833 20 18.5207 19.904 18.712 19.712C18.904 19.5207 19 19.2833 19 19C19 18.7167 18.904 18.4793 18.712 18.288C18.5207 18.096 18.2833 18 18 18C17.7167 18 17.4793 18.096 17.288 18.288C17.096 18.4793 17 18.7167 17 19C17 19.2833 17.096 19.5207 17.288 19.712C17.4793 19.904 17.7167 20 18 20Z" />
    </symbol>

    <symbol id="newspapper" viewBox="0 0 24 24">
        <path d="M4 21C3.45 21 2.97933 20.8043 2.588 20.413C2.196 20.021 2 19.55 2 19V3L3.675 4.675L5.325 3L7 4.675L8.675 3L10.325 4.675L12 3L13.675 4.675L15.325 3L17 4.675L18.675 3L20.325 4.675L22 3V19C22 19.55 21.8043 20.021 21.413 20.413C21.021 20.8043 20.55 21 20 21H4ZM4 19H11V13H4V19ZM13 19H20V17H13V19ZM13 15H20V13H13V15ZM4 11H20V8H4V11Z" />
    </symbol>

    <symbol id="arrow-forward" viewBox="0 0 24 24">
        <path d="M12 20L10.575 18.6L16.175 13H4V11H16.175L10.575 5.4L12 4L20 12L12 20Z" />
    </symbol>

    <symbol id="location-on" viewBox="0 0 24 24">
        <path d="M12 12C12.55 12 13.021 11.804 13.413 11.412C13.8043 11.0207 14 10.55 14 10C14 9.45 13.8043 8.979 13.413 8.587C13.021 8.19567 12.55 8 12 8C11.45 8 10.9793 8.19567 10.588 8.587C10.196 8.979 10 9.45 10 10C10 10.55 10.196 11.0207 10.588 11.412C10.9793 11.804 11.45 12 12 12ZM12 19.35C14.0333 17.4833 15.5417 15.7873 16.525 14.262C17.5083 12.7373 18 11.3833 18 10.2C18 8.38333 17.4207 6.89567 16.262 5.737C15.104 4.579 13.6833 4 12 4C10.3167 4 8.89567 4.579 7.737 5.737C6.579 6.89567 6 8.38333 6 10.2C6 11.3833 6.49167 12.7373 7.475 14.262C8.45833 15.7873 9.96667 17.4833 12 19.35ZM12 22C9.31667 19.7167 7.31267 17.5957 5.988 15.637C4.66267 13.679 4 11.8667 4 10.2C4 7.7 4.80433 5.70833 6.413 4.225C8.021 2.74167 9.88333 2 12 2C14.1167 2 15.979 2.74167 17.587 4.225C19.1957 5.70833 20 7.7 20 10.2C20 11.8667 19.3377 13.679 18.013 15.637C16.6877 17.5957 14.6833 19.7167 12 22Z" />
    </symbol>

    <symbol height="search" viewBox="0 0 24 24">
        <path d="M19.6 21L13.3 14.7C12.8 15.1 12.225 15.4167 11.575 15.65C10.925 15.8833 10.2333 16 9.5 16C7.68333 16 6.146 15.371 4.888 14.113C3.62933 12.8543 3 11.3167 3 9.5C3 7.68333 3.62933 6.14567 4.888 4.887C6.146 3.629 7.68333 3 9.5 3C11.3167 3 12.8543 3.629 14.113 4.887C15.371 6.14567 16 7.68333 16 9.5C16 10.2333 15.8833 10.925 15.65 11.575C15.4167 12.225 15.1 12.8 14.7 13.3L21 19.6L19.6 21ZM9.5 14C10.75 14 11.8127 13.5627 12.688 12.688C13.5627 11.8127 14 10.75 14 9.5C14 8.25 13.5627 7.18733 12.688 6.312C11.8127 5.43733 10.75 5 9.5 5C8.25 5 7.18733 5.43733 6.312 6.312C5.43733 7.18733 5 8.25 5 9.5C5 10.75 5.43733 11.8127 6.312 12.688C7.18733 13.5627 8.25 14 9.5 14Z" />
    </symbol>

    <symbol id="navigate-next" viewBox="0 0 24 24">
        <path d="M9.4 18L8 16.6L12.6 12L8 7.4L9.4 6L15.4 12L9.4 18Z" />
    </symbol>

    <symbol id="navigate-before" viewBox="0 0 24 24">
        <path d="M14 18L8 12L14 6L15.4 7.4L10.8 12L15.4 16.6L14 18Z" />
    </symbol>

    <symbol id="keyboard-double-arrow-left" viewBox="0 0 24 24">
        <path d="M11 18L5 12L11 6L12.4 7.4L7.825 12L12.4 16.6L11 18ZM17.6 18L11.6 12L17.6 6L19 7.4L14.425 12L19 16.6L17.6 18Z" />
    </symbol>

    <symbol id="keyboard-double-arrow-right" viewBox="0 0 24 24">
        <path d="M6.4 18L5 16.6L9.575 12L5 7.4L6.4 6L12.4 12L6.4 18ZM13 18L11.6 16.6L16.175 12L11.6 7.4L13 6L19 12L13 18Z" />
    </symbol>

    <symbol id="more-horiz" viewBox="0 0 24 24">
        <path d="M6 14C5.45 14 4.97933 13.804 4.588 13.412C4.196 13.0207 4 12.55 4 12C4 11.45 4.196 10.979 4.588 10.587C4.97933 10.1957 5.45 10 6 10C6.55 10 7.02067 10.1957 7.412 10.587C7.804 10.979 8 11.45 8 12C8 12.55 7.804 13.0207 7.412 13.412C7.02067 13.804 6.55 14 6 14ZM12 14C11.45 14 10.9793 13.804 10.588 13.412C10.196 13.0207 10 12.55 10 12C10 11.45 10.196 10.979 10.588 10.587C10.9793 10.1957 11.45 10 12 10C12.55 10 13.021 10.1957 13.413 10.587C13.8043 10.979 14 11.45 14 12C14 12.55 13.8043 13.0207 13.413 13.412C13.021 13.804 12.55 14 12 14ZM18 14C17.45 14 16.979 13.804 16.587 13.412C16.1957 13.0207 16 12.55 16 12C16 11.45 16.1957 10.979 16.587 10.587C16.979 10.1957 17.45 10 18 10C18.55 10 19.021 10.1957 19.413 10.587C19.8043 10.979 20 11.45 20 12C20 12.55 19.8043 13.0207 19.413 13.412C19.021 13.804 18.55 14 18 14Z" />
    </symbol>

    <symbol id="more-vert" viewBox="0 0 24 24">
        <path d="M12 20C11.45 20 10.9793 19.8043 10.588 19.413C10.196 19.021 10 18.55 10 18C10 17.45 10.196 16.979 10.588 16.587C10.9793 16.1957 11.45 16 12 16C12.55 16 13.021 16.1957 13.413 16.587C13.8043 16.979 14 17.45 14 18C14 18.55 13.8043 19.021 13.413 19.413C13.021 19.8043 12.55 20 12 20ZM12 14C11.45 14 10.9793 13.804 10.588 13.412C10.196 13.0207 10 12.55 10 12C10 11.45 10.196 10.979 10.588 10.587C10.9793 10.1957 11.45 10 12 10C12.55 10 13.021 10.1957 13.413 10.587C13.8043 10.979 14 11.45 14 12C14 12.55 13.8043 13.0207 13.413 13.412C13.021 13.804 12.55 14 12 14ZM12 8C11.45 8 10.9793 7.804 10.588 7.412C10.196 7.02067 10 6.55 10 6C10 5.45 10.196 4.97933 10.588 4.588C10.9793 4.196 11.45 4 12 4C12.55 4 13.021 4.196 13.413 4.588C13.8043 4.97933 14 5.45 14 6C14 6.55 13.8043 7.02067 13.413 7.412C13.021 7.804 12.55 8 12 8Z" />
    </symbol>

    <symbol id="groups" viewBox="0 0 24 26">
        <path d="M0 19.4356V17.735C0 16.9431 0.370833 16.3088 1.1125 15.8319C1.85417 15.355 2.81667 15.1166 4 15.1166C4.21667 15.1166 4.425 15.1211 4.625 15.13C4.825 15.139 5.01667 15.1615 5.2 15.1975C4.96667 15.5575 4.79167 15.9444 4.675 16.3583C4.55833 16.7722 4.5 17.2131 4.5 17.681V19.4356H0ZM6 19.4356V17.681C6 16.5112 6.55417 15.5665 7.6625 14.8466C8.77083 14.1268 10.2167 13.7669 12 13.7669C13.8 13.7669 15.25 14.1268 16.35 14.8466C17.45 15.5665 18 16.5112 18 17.681V19.4356H6ZM19.5 19.4356V17.681C19.5 17.2131 19.4458 16.7722 19.3375 16.3583C19.2292 15.9444 19.0667 15.5575 18.85 15.1975C19.0333 15.1615 19.2208 15.139 19.4125 15.13C19.6042 15.1211 19.8 15.1166 20 15.1166C21.2 15.1166 22.1667 15.355 22.9 15.8319C23.6333 16.3088 24 16.9431 24 17.735V19.4356H19.5ZM12 15.9264C11.05 15.9264 10.2 16.0613 9.45 16.3313C8.7 16.6012 8.25833 16.9161 8.125 17.2761H15.9C15.75 16.9161 15.3042 16.6012 14.5625 16.3313C13.8208 16.0613 12.9667 15.9264 12 15.9264ZM4 14.0368C3.45 14.0368 2.97917 13.8253 2.5875 13.4024C2.19583 12.9795 2 12.4712 2 11.8773C2 11.2654 2.19583 10.7525 2.5875 10.3386C2.97917 9.92473 3.45 9.71778 4 9.71778C4.56667 9.71778 5.04167 9.92473 5.425 10.3386C5.80833 10.7525 6 11.2654 6 11.8773C6 12.4712 5.80833 12.9795 5.425 13.4024C5.04167 13.8253 4.56667 14.0368 4 14.0368ZM20 14.0368C19.45 14.0368 18.9792 13.8253 18.5875 13.4024C18.1958 12.9795 18 12.4712 18 11.8773C18 11.2654 18.1958 10.7525 18.5875 10.3386C18.9792 9.92473 19.45 9.71778 20 9.71778C20.5667 9.71778 21.0417 9.92473 21.425 10.3386C21.8083 10.7525 22 11.2654 22 11.8773C22 12.4712 21.8083 12.9795 21.425 13.4024C21.0417 13.8253 20.5667 14.0368 20 14.0368ZM12 12.957C11.1667 12.957 10.4583 12.6421 9.875 12.0123C9.29167 11.3824 9 10.6176 9 9.71778C9 8.79999 9.29167 8.03066 9.875 7.4098C10.4583 6.78895 11.1667 6.47852 12 6.47852C12.85 6.47852 13.5625 6.78895 14.1375 7.4098C14.7125 8.03066 15 8.79999 15 9.71778C15 10.6176 14.7125 11.3824 14.1375 12.0123C13.5625 12.6421 12.85 12.957 12 12.957ZM12 8.63802C11.7167 8.63802 11.4792 8.7415 11.2875 8.94845C11.0958 9.15541 11 9.41185 11 9.71778C11 10.0237 11.0958 10.2802 11.2875 10.4871C11.4792 10.6941 11.7167 10.7975 12 10.7975C12.2833 10.7975 12.5208 10.6941 12.7125 10.4871C12.9042 10.2802 13 10.0237 13 9.71778C13 9.41185 12.9042 9.15541 12.7125 8.94845C12.5208 8.7415 12.2833 8.63802 12 8.63802Z" />
    </symbol>

    <symbol id="person-filled" viewBox="0 0 24 24">
        <path d="M12 12C10.9 12 9.95833 11.6083 9.175 10.825C8.39167 10.0417 8 9.1 8 8C8 6.9 8.39167 5.95833 9.175 5.175C9.95833 4.39167 10.9 4 12 4C13.1 4 14.0417 4.39167 14.825 5.175C15.6083 5.95833 16 6.9 16 8C16 9.1 15.6083 10.0417 14.825 10.825C14.0417 11.6083 13.1 12 12 12ZM4 20V17.2C4 16.6333 4.146 16.1123 4.438 15.637C4.72933 15.1623 5.11667 14.8 5.6 14.55C6.63333 14.0333 7.68333 13.6457 8.75 13.387C9.81667 13.129 10.9 13 12 13C13.1 13 14.1833 13.129 15.25 13.387C16.3167 13.6457 17.3667 14.0333 18.4 14.55C18.8833 14.8 19.2707 15.1623 19.562 15.637C19.854 16.1123 20 16.6333 20 17.2V20H4ZM6 18H18V17.2C18 17.0167 17.9543 16.85 17.863 16.7C17.771 16.55 17.65 16.4333 17.5 16.35C16.6 15.9 15.6917 15.5623 14.775 15.337C13.8583 15.1123 12.9333 15 12 15C11.0667 15 10.1417 15.1123 9.225 15.337C8.30833 15.5623 7.4 15.9 6.5 16.35C6.35 16.4333 6.22933 16.55 6.138 16.7C6.046 16.85 6 17.0167 6 17.2V18ZM12 10C12.55 10 13.021 9.804 13.413 9.412C13.8043 9.02067 14 8.55 14 8C14 7.45 13.8043 6.97933 13.413 6.588C13.021 6.196 12.55 6 12 6C11.45 6 10.9793 6.196 10.588 6.588C10.196 6.97933 10 7.45 10 8C10 8.55 10.196 9.02067 10.588 9.412C10.9793 9.804 11.45 10 12 10Z" />
    </symbol>

    <symbol id="attribution" viewBox="0 0 24 24">
        <path d="M10.75 19H13.25V14.5H14.75V9.9C14.75 9.45 14.5125 9.10417 14.0375 8.8625C13.5625 8.62083 12.8833 8.5 12 8.5C11.1167 8.5 10.4375 8.62083 9.9625 8.8625C9.4875 9.10417 9.25 9.45 9.25 9.9V14.5H10.75V19ZM12 22C10.6333 22 9.34167 21.7375 8.125 21.2125C6.90833 20.6875 5.84583 19.9708 4.9375 19.0625C4.02917 18.1542 3.3125 17.0917 2.7875 15.875C2.2625 14.6583 2 13.3667 2 12C2 10.6167 2.2625 9.32083 2.7875 8.1125C3.3125 6.90417 4.02917 5.84583 4.9375 4.9375C5.84583 4.02917 6.90833 3.3125 8.125 2.7875C9.34167 2.2625 10.6333 2 12 2C13.3833 2 14.6792 2.2625 15.8875 2.7875C17.0958 3.3125 18.1542 4.02917 19.0625 4.9375C19.9708 5.84583 20.6875 6.90417 21.2125 8.1125C21.7375 9.32083 22 10.6167 22 12C22 13.3667 21.7375 14.6583 21.2125 15.875C20.6875 17.0917 19.9708 18.1542 19.0625 19.0625C18.1542 19.9708 17.0958 20.6875 15.8875 21.2125C14.6792 21.7375 13.3833 22 12 22ZM12 20C14.2167 20 16.1042 19.2208 17.6625 17.6625C19.2208 16.1042 20 14.2167 20 12C20 9.78333 19.2208 7.89583 17.6625 6.3375C16.1042 4.77917 14.2167 4 12 4C9.78333 4 7.89583 4.77917 6.3375 6.3375C4.77917 7.89583 4 9.78333 4 12C4 14.2167 4.77917 16.1042 6.3375 17.6625C7.89583 19.2208 9.78333 20 12 20ZM12 8C12.4333 8 12.7917 7.85833 13.075 7.575C13.3583 7.29167 13.5 6.93333 13.5 6.5C13.5 6.06667 13.3583 5.70833 13.075 5.425C12.7917 5.14167 12.4333 5 12 5C11.5667 5 11.2083 5.14167 10.925 5.425C10.6417 5.70833 10.5 6.06667 10.5 6.5C10.5 6.93333 10.6417 7.29167 10.925 7.575C11.2083 7.85833 11.5667 8 12 8Z" />
    </symbol>

    <symbol id="draft" viewBox="0 0 24 24">
        <path d="M6 22C5.45 22 4.97933 21.8043 4.588 21.413C4.196 21.021 4 20.55 4 20V4C4 3.45 4.196 2.979 4.588 2.587C4.97933 2.19567 5.45 2 6 2H14L20 8V20C20 20.55 19.8043 21.021 19.413 21.413C19.021 21.8043 18.55 22 18 22H6ZM13 9V4H6V20H18V9H13Z" />
    </symbol>

    <symbol id="link" viewBox="0 0 24 24">
        <path d="M11 17H7C5.61667 17 4.43767 16.5123 3.463 15.537C2.48767 14.5623 2 13.3833 2 12C2 10.6167 2.48767 9.43733 3.463 8.462C4.43767 7.48733 5.61667 7 7 7H11V9H7C6.16667 9 5.45833 9.29167 4.875 9.875C4.29167 10.4583 4 11.1667 4 12C4 12.8333 4.29167 13.5417 4.875 14.125C5.45833 14.7083 6.16667 15 7 15H11V17ZM8 13V11H16V13H8ZM13 17V15H17C17.8333 15 18.5417 14.7083 19.125 14.125C19.7083 13.5417 20 12.8333 20 12C20 11.1667 19.7083 10.4583 19.125 9.875C18.5417 9.29167 17.8333 9 17 9H13V7H17C18.3833 7 19.5627 7.48733 20.538 8.462C21.5127 9.43733 22 10.6167 22 12C22 13.3833 21.5127 14.5623 20.538 15.537C19.5627 16.5123 18.3833 17 17 17H13Z" />
    </symbol>

    <symbol id="close" viewBox="0 0 24 24">
        <path d="M6.4 19L5 17.6L10.6 12L5 6.4L6.4 5L12 10.6L17.6 5L19 6.4L13.4 12L19 17.6L17.6 19L12 13.4L6.4 19Z" />
    </symbol>

    <symbol id="mail" viewBox="0 0 24 24">
        <path d="M4 20C3.45 20 2.97917 19.8042 2.5875 19.4125C2.19583 19.0208 2 18.55 2 18V6C2 5.45 2.19583 4.97917 2.5875 4.5875C2.97917 4.19583 3.45 4 4 4H20C20.55 4 21.0208 4.19583 21.4125 4.5875C21.8042 4.97917 22 5.45 22 6V18C22 18.55 21.8042 19.0208 21.4125 19.4125C21.0208 19.8042 20.55 20 20 20H4ZM12 13L4 8V18H20V8L12 13ZM12 11L20 6H4L12 11ZM4 8V6V18V8Z" />
    </symbol>

    <symbol id="lock-open" viewBox="0 0 24 24">
        <path d="M6 8H15V6C15 5.16667 14.7083 4.45833 14.125 3.875C13.5417 3.29167 12.8333 3 12 3C11.1667 3 10.4583 3.29167 9.875 3.875C9.29167 4.45833 9 5.16667 9 6H7C7 4.61667 7.48767 3.43733 8.463 2.462C9.43767 1.48733 10.6167 1 12 1C13.3833 1 14.5627 1.48733 15.538 2.462C16.5127 3.43733 17 4.61667 17 6V8H18C18.55 8 19.021 8.19567 19.413 8.587C19.8043 8.979 20 9.45 20 10V20C20 20.55 19.8043 21.021 19.413 21.413C19.021 21.8043 18.55 22 18 22H6C5.45 22 4.97933 21.8043 4.588 21.413C4.196 21.021 4 20.55 4 20V10C4 9.45 4.196 8.979 4.588 8.587C4.97933 8.19567 5.45 8 6 8ZM6 20H18V10H6V20ZM12 17C12.55 17 13.021 16.8043 13.413 16.413C13.8043 16.021 14 15.55 14 15C14 14.45 13.8043 13.979 13.413 13.587C13.021 13.1957 12.55 13 12 13C11.45 13 10.9793 13.1957 10.588 13.587C10.196 13.979 10 14.45 10 15C10 15.55 10.196 16.021 10.588 16.413C10.9793 16.8043 11.45 17 12 17Z" />
    </symbol>

    <symbol id="key" viewBox="0 0 24 24">
        <path d="M7 14C6.45 14 5.97933 13.804 5.588 13.412C5.196 13.0207 5 12.55 5 12C5 11.45 5.196 10.979 5.588 10.587C5.97933 10.1957 6.45 10 7 10C7.55 10 8.02067 10.1957 8.412 10.587C8.804 10.979 9 11.45 9 12C9 12.55 8.804 13.0207 8.412 13.412C8.02067 13.804 7.55 14 7 14ZM7 18C5.33333 18 3.91667 17.4167 2.75 16.25C1.58333 15.0833 1 13.6667 1 12C1 10.3333 1.58333 8.91667 2.75 7.75C3.91667 6.58333 5.33333 6 7 6C8.11667 6 9.12933 6.275 10.038 6.825C10.946 7.375 11.6667 8.1 12.2 9H21L24 12L19.5 16.5L17.5 15L15.5 16.5L13.375 15H12.2C11.6667 15.9 10.946 16.625 10.038 17.175C9.12933 17.725 8.11667 18 7 18ZM7 16C7.93333 16 8.75433 15.7167 9.463 15.15C10.171 14.5833 10.6417 13.8667 10.875 13H14L15.45 14.025L17.5 12.5L19.275 13.875L21.15 12L20.15 11H10.875C10.6417 10.1333 10.171 9.41667 9.463 8.85C8.75433 8.28333 7.93333 8 7 8C5.9 8 4.95833 8.39167 4.175 9.175C3.39167 9.95833 3 10.9 3 12C3 13.1 3.39167 14.0417 4.175 14.825C4.95833 15.6083 5.9 16 7 16Z" />
    </symbol>

    <symbol id="person-add" viewBox="0 0 24 24">
        <path d="M18 14V11H15V9H18V6H20V9H23V11H20V14H18ZM9 12C7.9 12 6.95833 11.6083 6.175 10.825C5.39167 10.0417 5 9.1 5 8C5 6.9 5.39167 5.95833 6.175 5.175C6.95833 4.39167 7.9 4 9 4C10.1 4 11.0417 4.39167 11.825 5.175C12.6083 5.95833 13 6.9 13 8C13 9.1 12.6083 10.0417 11.825 10.825C11.0417 11.6083 10.1 12 9 12ZM1 20V17.2C1 16.6333 1.14583 16.1125 1.4375 15.6375C1.72917 15.1625 2.11667 14.8 2.6 14.55C3.63333 14.0333 4.68333 13.6458 5.75 13.3875C6.81667 13.1292 7.9 13 9 13C10.1 13 11.1833 13.1292 12.25 13.3875C13.3167 13.6458 14.3667 14.0333 15.4 14.55C15.8833 14.8 16.2708 15.1625 16.5625 15.6375C16.8542 16.1125 17 16.6333 17 17.2V20H1ZM3 18H15V17.2C15 17.0167 14.9542 16.85 14.8625 16.7C14.7708 16.55 14.65 16.4333 14.5 16.35C13.6 15.9 12.6917 15.5625 11.775 15.3375C10.8583 15.1125 9.93333 15 9 15C8.06667 15 7.14167 15.1125 6.225 15.3375C5.30833 15.5625 4.4 15.9 3.5 16.35C3.35 16.4333 3.22917 16.55 3.1375 16.7C3.04583 16.85 3 17.0167 3 17.2V18ZM9 10C9.55 10 10.0208 9.80417 10.4125 9.4125C10.8042 9.02083 11 8.55 11 8C11 7.45 10.8042 6.97917 10.4125 6.5875C10.0208 6.19583 9.55 6 9 6C8.45 6 7.97917 6.19583 7.5875 6.5875C7.19583 6.97917 7 7.45 7 8C7 8.55 7.19583 9.02083 7.5875 9.4125C7.97917 9.80417 8.45 10 9 10Z" />
    </symbol>

    <symbol id="alternate-email" viewBox="0 0 24 24">
        <path d="M12 22C10.6333 22 9.34167 21.7373 8.125 21.212C6.90833 20.6873 5.846 19.9707 4.938 19.062C4.02933 18.154 3.31267 17.0917 2.788 15.875C2.26267 14.6583 2 13.3667 2 12C2 10.6167 2.26267 9.321 2.788 8.113C3.31267 6.90433 4.02933 5.846 4.938 4.938C5.846 4.02933 6.90833 3.31233 8.125 2.787C9.34167 2.26233 10.6333 2 12 2C13.3833 2 14.679 2.26233 15.887 2.787C17.0957 3.31233 18.154 4.02933 19.062 4.938C19.9707 5.846 20.6873 6.90433 21.212 8.113C21.7373 9.321 22 10.6167 22 12V13.45C22 14.4333 21.6627 15.2707 20.988 15.962C20.3127 16.654 19.4833 17 18.5 17C17.9 17 17.3417 16.8667 16.825 16.6C16.3083 16.3333 15.8833 15.9833 15.55 15.55C15.1 16 14.571 16.3543 13.963 16.613C13.3543 16.871 12.7 17 12 17C10.6167 17 9.43767 16.5123 8.463 15.537C7.48767 14.5623 7 13.3833 7 12C7 10.6167 7.48767 9.43733 8.463 8.462C9.43767 7.48733 10.6167 7 12 7C13.3833 7 14.5627 7.48733 15.538 8.462C16.5127 9.43733 17 10.6167 17 12V13.45C17 13.9333 17.15 14.3123 17.45 14.587C17.75 14.8623 18.1 15 18.5 15C18.9 15 19.25 14.8623 19.55 14.587C19.85 14.3123 20 13.9333 20 13.45V12C20 9.81667 19.2123 7.93733 17.637 6.362C16.0623 4.78733 14.1833 4 12 4C9.81667 4 7.93733 4.78733 6.362 6.362C4.78733 7.93733 4 9.81667 4 12C4 14.1833 4.78733 16.0623 6.362 17.637C7.93733 19.2123 9.81667 20 12 20H17V22H12ZM12 15C12.8333 15 13.5417 14.7083 14.125 14.125C14.7083 13.5417 15 12.8333 15 12C15 11.1667 14.7083 10.4583 14.125 9.875C13.5417 9.29167 12.8333 9 12 9C11.1667 9 10.4583 9.29167 9.875 9.875C9.29167 10.4583 9 11.1667 9 12C9 12.8333 9.29167 13.5417 9.875 14.125C10.4583 14.7083 11.1667 15 12 15Z" />
    </symbol>

    <symbol id="badge" viewBox="0 0 24 24">
        <path d="M4 22C3.45 22 2.97933 21.8043 2.588 21.413C2.196 21.021 2 20.55 2 20V9C2 8.45 2.196 7.979 2.588 7.587C2.97933 7.19567 3.45 7 4 7H9V4C9 3.45 9.196 2.979 9.588 2.587C9.97933 2.19567 10.45 2 11 2H13C13.55 2 14.021 2.19567 14.413 2.587C14.8043 2.979 15 3.45 15 4V7H20C20.55 7 21.021 7.19567 21.413 7.587C21.8043 7.979 22 8.45 22 9V20C22 20.55 21.8043 21.021 21.413 21.413C21.021 21.8043 20.55 22 20 22H4ZM4 20H20V9H15C15 9.55 14.8043 10.0207 14.413 10.412C14.021 10.804 13.55 11 13 11H11C10.45 11 9.97933 10.804 9.588 10.412C9.196 10.0207 9 9.55 9 9H4V20ZM6 18H12V17.55C12 17.2667 11.9207 17.004 11.762 16.762C11.604 16.5207 11.3833 16.3333 11.1 16.2C10.7667 16.05 10.4293 15.9377 10.088 15.863C9.746 15.7877 9.38333 15.75 9 15.75C8.61667 15.75 8.25433 15.7877 7.913 15.863C7.571 15.9377 7.23333 16.05 6.9 16.2C6.61667 16.3333 6.396 16.5207 6.238 16.762C6.07933 17.004 6 17.2667 6 17.55V18ZM14 16.5H18V15H14V16.5ZM9 15C9.41667 15 9.77067 14.854 10.062 14.562C10.354 14.2707 10.5 13.9167 10.5 13.5C10.5 13.0833 10.354 12.7293 10.062 12.438C9.77067 12.146 9.41667 12 9 12C8.58333 12 8.22933 12.146 7.938 12.438C7.646 12.7293 7.5 13.0833 7.5 13.5C7.5 13.9167 7.646 14.2707 7.938 14.562C8.22933 14.854 8.58333 15 9 15ZM14 13.5H18V12H14V13.5ZM11 9H13V4H11V9Z" />
    </symbol>

    <symbol id="id-card" viewBox="0 0 24 24">
        <path d="M14 13H19V11H14V13ZM14 10H19V8H14V10ZM5 16H13V15.45C13 14.7 12.6333 14.1042 11.9 13.6625C11.1667 13.2208 10.2 13 9 13C7.8 13 6.83333 13.2208 6.1 13.6625C5.36667 14.1042 5 14.7 5 15.45V16ZM9 12C9.55 12 10.0208 11.8042 10.4125 11.4125C10.8042 11.0208 11 10.55 11 10C11 9.45 10.8042 8.97917 10.4125 8.5875C10.0208 8.19583 9.55 8 9 8C8.45 8 7.97917 8.19583 7.5875 8.5875C7.19583 8.97917 7 9.45 7 10C7 10.55 7.19583 11.0208 7.5875 11.4125C7.97917 11.8042 8.45 12 9 12ZM4 20C3.45 20 2.97917 19.8042 2.5875 19.4125C2.19583 19.0208 2 18.55 2 18V6C2 5.45 2.19583 4.97917 2.5875 4.5875C2.97917 4.19583 3.45 4 4 4H20C20.55 4 21.0208 4.19583 21.4125 4.5875C21.8042 4.97917 22 5.45 22 6V18C22 18.55 21.8042 19.0208 21.4125 19.4125C21.0208 19.8042 20.55 20 20 20H4ZM4 18H20V6H4V18Z" />
    </symbol>

    <symbol id="group" viewBox="0 0 24 24">
        <path d="M2.9875 18V18.0125H3H15H15.0125V18V17.2C15.0125 17.0145 14.9661 16.8455 14.8732 16.6935C14.7804 16.5417 14.658 16.4235 14.5061 16.3391L14.5056 16.3388C13.6048 15.8884 12.6956 15.5506 11.778 15.3254C10.8603 15.1001 9.93435 14.9875 9 14.9875C8.06565 14.9875 7.13965 15.1001 6.22202 15.3254C5.30439 15.5506 4.39519 15.8884 3.49441 16.3388L3.4944 16.3388L3.49393 16.3391C3.342 16.4235 3.2196 16.5417 3.12683 16.6935C3.03392 16.8455 2.9875 17.0145 2.9875 17.2V18ZM1.0125 19.9875V17.2C1.0125 16.6356 1.15771 16.117 1.44815 15.644C1.73865 15.1709 2.12445 14.8101 2.60569 14.5611C3.63819 14.0449 4.68727 13.6577 5.75294 13.3996C6.81864 13.1415 7.90099 13.0125 9 13.0125C10.099 13.0125 11.1814 13.1415 12.2471 13.3996C13.3127 13.6577 14.3618 14.0449 15.3943 14.5611C15.8755 14.8101 16.2614 15.1709 16.5518 15.644C16.8423 16.117 16.9875 16.6356 16.9875 17.2V19.9875H1.0125ZM19.0125 19.9875V17C19.0125 16.2642 18.8076 15.5578 18.3982 14.881C17.997 14.2178 17.4314 13.6471 16.7018 13.1688C17.5313 13.2695 18.3127 13.4381 19.0462 13.6744C19.7955 13.9158 20.4947 14.2114 21.144 14.561C21.7429 14.8937 22.1998 15.2635 22.5151 15.6702C22.8302 16.0765 22.9875 16.5196 22.9875 17V19.9875H19.0125ZM9 11.9875C7.90334 11.9875 6.96485 11.5972 6.18384 10.8162C5.40283 10.0352 5.0125 9.09666 5.0125 8C5.0125 6.90334 5.40283 5.96485 6.18384 5.18384C6.96485 4.40283 7.90334 4.0125 9 4.0125C10.0967 4.0125 11.0352 4.40283 11.8162 5.18384C12.5972 5.96485 12.9875 6.90334 12.9875 8C12.9875 9.09666 12.5972 10.0352 11.8162 10.8162C11.0352 11.5972 10.0967 11.9875 9 11.9875ZM18.9875 8C18.9875 9.09666 18.5972 10.0352 17.8162 10.8162C17.0352 11.5972 16.0967 11.9875 15 11.9875C14.8175 11.9875 14.5848 11.9668 14.3018 11.9251C14.0284 11.8849 13.8019 11.8409 13.6222 11.793C14.067 11.2625 14.4093 10.6746 14.6492 10.0294C14.8914 9.37795 15.0125 8.70147 15.0125 8C15.0125 7.29853 14.8914 6.62205 14.6492 5.97064C14.4091 5.3249 14.0664 4.73659 13.6212 4.20576C13.848 4.12615 14.0747 4.07421 14.3013 4.04993C14.5342 4.02498 14.7671 4.0125 15 4.0125C16.0967 4.0125 17.0352 4.40283 17.8162 5.18384C18.5972 5.96485 18.9875 6.90334 18.9875 8ZM9 10.0125C9.55334 10.0125 10.0273 9.81533 10.4213 9.42134C10.8153 9.02735 11.0125 8.55334 11.0125 8C11.0125 7.44666 10.8153 6.97265 10.4213 6.57866C10.0273 6.18467 9.55334 5.9875 9 5.9875C8.44666 5.9875 7.97265 6.18467 7.57866 6.57866C7.18467 6.97265 6.9875 7.44666 6.9875 8C6.9875 8.55334 7.18467 9.02735 7.57866 9.42134C7.97265 9.81533 8.44666 10.0125 9 10.0125Z" />
    </symbol>

    <symbol id="account-balance" viewBox="0 0 24 24">
        <path d="M5 17V10H7V17H5ZM11 17V10H13V17H11ZM2 21V19H22V21H2ZM17 17V10H19V17H17ZM2 8V6L12 1L22 6V8H2ZM6.45 6H17.55L12 3.25L6.45 6Z" />
    </symbol>

    <symbol id="assured-workload" viewBox="0 0 24 24">
        <path d="M5 17V10H7V17H5ZM11 17V10H13V17H11ZM2 8V6L12 1L22 6V8H2ZM6.475 6H17.525L12 3.25L6.475 6ZM2 21V19H14.05C14.0833 19.35 14.125 19.6873 14.175 20.012C14.225 20.3373 14.3 20.6667 14.4 21H2ZM17 13.25V10H19V12.25L17 13.25ZM20 24C18.85 23.7167 17.896 23.054 17.138 22.012C16.3793 20.9707 16 19.8167 16 18.55V16L20 14L24 16V18.55C24 19.8167 23.621 20.9707 22.863 22.012C22.1043 23.054 21.15 23.7167 20 24ZM19.275 21L22.75 17.55L21.7 16.5L19.275 18.875L18.3 17.9L17.25 18.975L19.275 21Z" />
    </symbol>

    <symbol id="globe" viewBox="0 0 24 24">
        <path d="M12 22C10.6167 22 9.31667 21.7375 8.1 21.2125C6.88333 20.6875 5.825 19.975 4.925 19.075C4.025 18.175 3.3125 17.1167 2.7875 15.9C2.2625 14.6833 2 13.3833 2 12C2 10.6167 2.2625 9.31667 2.7875 8.1C3.3125 6.88333 4.025 5.825 4.925 4.925C5.825 4.025 6.88333 3.3125 8.1 2.7875C9.31667 2.2625 10.6167 2 12 2C13.3833 2 14.6833 2.2625 15.9 2.7875C17.1167 3.3125 18.175 4.025 19.075 4.925C19.975 5.825 20.6875 6.88333 21.2125 8.1C21.7375 9.31667 22 10.6167 22 12C22 13.3833 21.7375 14.6833 21.2125 15.9C20.6875 17.1167 19.975 18.175 19.075 19.075C18.175 19.975 17.1167 20.6875 15.9 21.2125C14.6833 21.7375 13.3833 22 12 22ZM12 20C14.2333 20 16.125 19.225 17.675 17.675C19.225 16.125 20 14.2333 20 12C20 11.8833 19.9958 11.7625 19.9875 11.6375C19.9792 11.5125 19.975 11.4083 19.975 11.325C19.8917 11.8083 19.6667 12.2083 19.3 12.525C18.9333 12.8417 18.5 13 18 13H16C15.45 13 14.9792 12.8042 14.5875 12.4125C14.1958 12.0208 14 11.55 14 11V10H10V8C10 7.45 10.1958 6.97917 10.5875 6.5875C10.9792 6.19583 11.45 6 12 6H13C13 5.61667 13.1042 5.27917 13.3125 4.9875C13.5208 4.69583 13.775 4.45833 14.075 4.275C13.7417 4.19167 13.4042 4.125 13.0625 4.075C12.7208 4.025 12.3667 4 12 4C9.76667 4 7.875 4.775 6.325 6.325C4.775 7.875 4 9.76667 4 12H9C10.1 12 11.0417 12.3917 11.825 13.175C12.6083 13.9583 13 14.9 13 16V17H10V19.75C10.3333 19.8333 10.6625 19.8958 10.9875 19.9375C11.3125 19.9792 11.65 20 12 20Z" />
    </symbol>

    <symbol id="public" viewBox="0 0 24 24">
        <path d="M12 22C10.6167 22 9.31667 21.7373 8.1 21.212C6.88333 20.6873 5.825 19.975 4.925 19.075C4.025 18.175 3.31267 17.1167 2.788 15.9C2.26267 14.6833 2 13.3833 2 12C2 10.6167 2.26267 9.31667 2.788 8.1C3.31267 6.88333 4.025 5.825 4.925 4.925C5.825 4.025 6.88333 3.31233 8.1 2.787C9.31667 2.26233 10.6167 2 12 2C13.3833 2 14.6833 2.26233 15.9 2.787C17.1167 3.31233 18.175 4.025 19.075 4.925C19.975 5.825 20.6873 6.88333 21.212 8.1C21.7373 9.31667 22 10.6167 22 12C22 13.3833 21.7373 14.6833 21.212 15.9C20.6873 17.1167 19.975 18.175 19.075 19.075C18.175 19.975 17.1167 20.6873 15.9 21.212C14.6833 21.7373 13.3833 22 12 22ZM11 19.95V18C10.45 18 9.97933 17.8043 9.588 17.413C9.196 17.021 9 16.55 9 16V15L4.2 10.2C4.15 10.5 4.104 10.8 4.062 11.1C4.02067 11.4 4 11.7 4 12C4 14.0167 4.66267 15.7833 5.988 17.3C7.31267 18.8167 8.98333 19.7 11 19.95ZM17.9 17.4C18.2333 17.0333 18.5333 16.6373 18.8 16.212C19.0667 15.7873 19.2877 15.3457 19.463 14.887C19.6377 14.429 19.771 13.9583 19.863 13.475C19.9543 12.9917 20 12.5 20 12C20 10.3667 19.546 8.875 18.638 7.525C17.7293 6.175 16.5167 5.2 15 4.6V5C15 5.55 14.8043 6.02067 14.413 6.412C14.021 6.804 13.55 7 13 7H11V9C11 9.28333 10.9043 9.52067 10.713 9.712C10.521 9.904 10.2833 10 10 10H8V12H14C14.2833 12 14.521 12.0957 14.713 12.287C14.9043 12.479 15 12.7167 15 13V16H16C16.4333 16 16.825 16.129 17.175 16.387C17.525 16.6457 17.7667 16.9833 17.9 17.4Z" />
    </symbol>

    <symbol id="prompt-suggestion" viewBox="0 0 24 24">
        <path d="M15 19L13.6 17.575L17.175 14H7.5C6.25 14 5.1875 13.5625 4.3125 12.6875C3.4375 11.8125 3 10.75 3 9.5C3 8.25 3.4375 7.1875 4.3125 6.3125C5.1875 5.4375 6.25 5 7.5 5H8V7H7.5C6.8 7 6.20833 7.24167 5.725 7.725C5.24167 8.20833 5 8.8 5 9.5C5 10.2 5.24167 10.7917 5.725 11.275C6.20833 11.7583 6.8 12 7.5 12H17.175L13.6 8.4L15 7L21 13L15 19Z" />
    </symbol>

    <symbol id="edit" viewBox="0 0 24 24">
        <path d="M5 19H6.425L16.2 9.225L14.775 7.8L5 17.575V19ZM3 21V16.75L16.2 3.575C16.4 3.39167 16.6208 3.25 16.8625 3.15C17.1042 3.05 17.3583 3 17.625 3C17.8917 3 18.15 3.05 18.4 3.15C18.65 3.25 18.8667 3.4 19.05 3.6L20.425 5C20.625 5.18333 20.7708 5.4 20.8625 5.65C20.9542 5.9 21 6.15 21 6.4C21 6.66667 20.9542 6.92083 20.8625 7.1625C20.7708 7.40417 20.625 7.625 20.425 7.825L7.25 21H3ZM15.475 8.525L14.775 7.8L16.2 9.225L15.475 8.525Z" />
    </symbol>

    <symbol id="delete" viewBox="0 0 24 24">
        <path d="M7 21C6.45 21 5.97917 20.8042 5.5875 20.4125C5.19583 20.0208 5 19.55 5 19V6H4V4H9V3H15V4H20V6H19V19C19 19.55 18.8042 20.0208 18.4125 20.4125C18.0208 20.8042 17.55 21 17 21H7ZM17 6H7V19H17V6ZM9 17H11V8H9V17ZM13 17H15V8H13V17Z" />
    </symbol>

    <symbol id="menu" viewBox="0 0 24 24">
        <path d="M3 18V16H21V18H3ZM3 13V11H21V13H3ZM3 8V6H21V8H3Z" />
    </symbol>

    <symbol id="update" viewBox="0 0 24 24">
        <path d="M12 21C10.75 21 9.57917 20.7625 8.4875 20.2875C7.39583 19.8125 6.44583 19.1708 5.6375 18.3625C4.82917 17.5542 4.1875 16.6042 3.7125 15.5125C3.2375 14.4208 3 13.25 3 12C3 10.75 3.2375 9.57917 3.7125 8.4875C4.1875 7.39583 4.82917 6.44583 5.6375 5.6375C6.44583 4.82917 7.39583 4.1875 8.4875 3.7125C9.57917 3.2375 10.75 3 12 3C13.3667 3 14.6625 3.29167 15.8875 3.875C17.1125 4.45833 18.15 5.28333 19 6.35V4H21V10H15V8H17.75C17.0667 7.06667 16.225 6.33333 15.225 5.8C14.225 5.26667 13.15 5 12 5C10.05 5 8.39583 5.67917 7.0375 7.0375C5.67917 8.39583 5 10.05 5 12C5 13.95 5.67917 15.6042 7.0375 16.9625C8.39583 18.3208 10.05 19 12 19C13.75 19 15.2792 18.4333 16.5875 17.3C17.8958 16.1667 18.6667 14.7333 18.9 13H20.95C20.7 15.2833 19.7208 17.1875 18.0125 18.7125C16.3042 20.2375 14.3 21 12 21ZM14.8 16.2L11 12.4V7H13V11.6L16.2 14.8L14.8 16.2Z" />
    </symbol>

    <symbol id="verified-user" viewBox="0 0 24 24">
        <path d="M10.95 15.55L16.6 9.9L15.175 8.475L10.95 12.7L8.85 10.6L7.425 12.025L10.95 15.55ZM12 22C9.68333 21.4167 7.77083 20.0875 6.2625 18.0125C4.75417 15.9375 4 13.6333 4 11.1V5L12 2L20 5V11.1C20 13.6333 19.2458 15.9375 17.7375 18.0125C16.2292 20.0875 14.3167 21.4167 12 22ZM12 19.9C13.7333 19.35 15.1667 18.25 16.3 16.6C17.4333 14.95 18 13.1167 18 11.1V6.375L12 4.125L6 6.375V11.1C6 13.1167 6.56667 14.95 7.7 16.6C8.83333 18.25 10.2667 19.35 12 19.9Z" />
    </symbol>

    <symbol id="person-edit" viewBox="0 0 24 24">
        <path d="M4 20V17.2C4 16.6333 4.14583 16.1125 4.4375 15.6375C4.72917 15.1625 5.11667 14.8 5.6 14.55C6.63333 14.0333 7.68333 13.6458 8.75 13.3875C9.81667 13.1292 10.9 13 12 13C12.6167 13 13.225 13.0375 13.825 13.1125C14.425 13.1875 15.025 13.3083 15.625 13.475L13.95 15.175C13.6167 15.125 13.2917 15.0833 12.975 15.05C12.6583 15.0167 12.3333 15 12 15C11.0667 15 10.1417 15.1125 9.225 15.3375C8.30833 15.5625 7.4 15.9 6.5 16.35C6.35 16.4333 6.22917 16.55 6.1375 16.7C6.04583 16.85 6 17.0167 6 17.2V18H12V20H4ZM14 21V17.925L19.525 12.425C19.675 12.275 19.8417 12.1667 20.025 12.1C20.2083 12.0333 20.3917 12 20.575 12C20.775 12 20.9667 12.0375 21.15 12.1125C21.3333 12.1875 21.5 12.3 21.65 12.45L22.575 13.375C22.7083 13.525 22.8125 13.6917 22.8875 13.875C22.9625 14.0583 23 14.2417 23 14.425C23 14.6083 22.9667 14.7958 22.9 14.9875C22.8333 15.1792 22.725 15.35 22.575 15.5L17.075 21H14ZM15.5 19.5H16.45L19.475 16.45L19.025 15.975L18.55 15.525L15.5 18.55V19.5ZM19.025 15.975L18.55 15.525L19.475 16.45L19.025 15.975ZM12 12C10.9 12 9.95833 11.6083 9.175 10.825C8.39167 10.0417 8 9.1 8 8C8 6.9 8.39167 5.95833 9.175 5.175C9.95833 4.39167 10.9 4 12 4C13.1 4 14.0417 4.39167 14.825 5.175C15.6083 5.95833 16 6.9 16 8C16 9.1 15.6083 10.0417 14.825 10.825C14.0417 11.6083 13.1 12 12 12ZM12 10C12.55 10 13.0208 9.80417 13.4125 9.4125C13.8042 9.02083 14 8.55 14 8C14 7.45 13.8042 6.97917 13.4125 6.5875C13.0208 6.19583 12.55 6 12 6C11.45 6 10.9792 6.19583 10.5875 6.5875C10.1958 6.97917 10 7.45 10 8C10 8.55 10.1958 9.02083 10.5875 9.4125C10.9792 9.80417 11.45 10 12 10Z" />
    </symbol>

    <symbol id="calendar-add-on" viewBox="0 0 24 24">
        <path d="M17 22V19H14V17H17V14H19V17H22V19H19V22H17ZM5 20C4.45 20 3.97917 19.8042 3.5875 19.4125C3.19583 19.0208 3 18.55 3 18V6C3 5.45 3.19583 4.97917 3.5875 4.5875C3.97917 4.19583 4.45 4 5 4H6V2H8V4H14V2H16V4H17C17.55 4 18.0208 4.19583 18.4125 4.5875C18.8042 4.97917 19 5.45 19 6V12.1C18.6667 12.05 18.3333 12.025 18 12.025C17.6667 12.025 17.3333 12.05 17 12.1V10H5V18H12C12 18.3333 12.025 18.6667 12.075 19C12.125 19.3333 12.2167 19.6667 12.35 20H5ZM5 8H17V6H5V8Z" />
    </symbol>

    <symbol id="contextual-token-add" viewBox="0 0 24 24">
        <path d="M20 20H4C3.45 20 2.97917 19.8042 2.5875 19.4125C2.19583 19.0208 2 18.55 2 18V6C2 5.45 2.19583 4.97917 2.5875 4.5875C2.97917 4.19583 3.45 4 4 4H14V6H4V18H20V11H22V18C22 18.55 21.8042 19.0208 21.4125 19.4125C21.0208 19.8042 20.55 20 20 20ZM6 16H13V13H6V16ZM6 11H13V8H6V11ZM15 16H18V11H15V16ZM18 9V7H16V5H18V3H20V5H22V7H20V9H18Z" />
    </symbol>

    <symbol id="download" viewBox="0 0 24 24">
        <path d="M6 20C5.45 20 4.97933 19.8043 4.588 19.413C4.196 19.021 4 18.55 4 18V15H6V18H18V15H20V18C20 18.55 19.8043 19.021 19.413 19.413C19.021 19.8043 18.55 20 18 20H6ZM12 16L7 11L8.4 9.55L11 12.15V4H13V12.15L15.6 9.55L17 11L12 16Z" />
    </symbol>

    <symbol id="subdirectory-arrow-right" viewBox="0 0 24 24">
        <path d="M14 21L12.575 19.575L16.175 16H5V4H7V14H16.175L12.575 10.4L13.975 8.975L20 15L14 21Z" />
    </symbol>

    <symbol id="person-remove" viewBox="0 0 24 24">
        <path d="M16 11V9H22V11H16ZM9 12C7.9 12 6.95833 11.6083 6.175 10.825C5.39167 10.0417 5 9.1 5 8C5 6.9 5.39167 5.95833 6.175 5.175C6.95833 4.39167 7.9 4 9 4C10.1 4 11.0417 4.39167 11.825 5.175C12.6083 5.95833 13 6.9 13 8C13 9.1 12.6083 10.0417 11.825 10.825C11.0417 11.6083 10.1 12 9 12ZM1 20V17.2C1 16.6333 1.14583 16.1125 1.4375 15.6375C1.72917 15.1625 2.11667 14.8 2.6 14.55C3.63333 14.0333 4.68333 13.6458 5.75 13.3875C6.81667 13.1292 7.9 13 9 13C10.1 13 11.1833 13.1292 12.25 13.3875C13.3167 13.6458 14.3667 14.0333 15.4 14.55C15.8833 14.8 16.2708 15.1625 16.5625 15.6375C16.8542 16.1125 17 16.6333 17 17.2V20H1ZM3 18H15V17.2C15 17.0167 14.9542 16.85 14.8625 16.7C14.7708 16.55 14.65 16.4333 14.5 16.35C13.6 15.9 12.6917 15.5625 11.775 15.3375C10.8583 15.1125 9.93333 15 9 15C8.06667 15 7.14167 15.1125 6.225 15.3375C5.30833 15.5625 4.4 15.9 3.5 16.35C3.35 16.4333 3.22917 16.55 3.1375 16.7C3.04583 16.85 3 17.0167 3 17.2V18ZM9 10C9.55 10 10.0208 9.80417 10.4125 9.4125C10.8042 9.02083 11 8.55 11 8C11 7.45 10.8042 6.97917 10.4125 6.5875C10.0208 6.19583 9.55 6 9 6C8.45 6 7.97917 6.19583 7.5875 6.5875C7.19583 6.97917 7 7.45 7 8C7 8.55 7.19583 9.02083 7.5875 9.4125C7.97917 9.80417 8.45 10 9 10Z" />
    </symbol>

    <symbol id="visibility" viewBox="0 0 24 24">
        <path d="M12 16C13.25 16 14.3127 15.5627 15.188 14.688C16.0627 13.8127 16.5 12.75 16.5 11.5C16.5 10.25 16.0627 9.18733 15.188 8.312C14.3127 7.43733 13.25 7 12 7C10.75 7 9.68733 7.43733 8.812 8.312C7.93733 9.18733 7.5 10.25 7.5 11.5C7.5 12.75 7.93733 13.8127 8.812 14.688C9.68733 15.5627 10.75 16 12 16ZM12 14.2C11.25 14.2 10.6127 13.9373 10.088 13.412C9.56267 12.8873 9.3 12.25 9.3 11.5C9.3 10.75 9.56267 10.1123 10.088 9.587C10.6127 9.06233 11.25 8.8 12 8.8C12.75 8.8 13.3877 9.06233 13.913 9.587C14.4377 10.1123 14.7 10.75 14.7 11.5C14.7 12.25 14.4377 12.8873 13.913 13.412C13.3877 13.9373 12.75 14.2 12 14.2ZM12 19C9.56667 19 7.35 18.3207 5.35 16.962C3.35 15.604 1.9 13.7833 1 11.5C1.9 9.21667 3.35 7.39567 5.35 6.037C7.35 4.679 9.56667 4 12 4C14.4333 4 16.65 4.679 18.65 6.037C20.65 7.39567 22.1 9.21667 23 11.5C22.1 13.7833 20.65 15.604 18.65 16.962C16.65 18.3207 14.4333 19 12 19ZM12 17C13.8833 17 15.6127 16.504 17.188 15.512C18.7627 14.5207 19.9667 13.1833 20.8 11.5C19.9667 9.81667 18.7627 8.479 17.188 7.487C15.6127 6.49567 13.8833 6 12 6C10.1167 6 8.38733 6.49567 6.812 7.487C5.23733 8.479 4.03333 9.81667 3.2 11.5C4.03333 13.1833 5.23733 14.5207 6.812 15.512C8.38733 16.504 10.1167 17 12 17Z" />
    </symbol>

</svg>