<svg width="0" height="0" style="position: absolute;" hidden>

    <symbol id="language" viewBox="0 0 24 24">
        <path d="M12 22C10.6333 22 9.34167 21.7373 8.125 21.212C6.90833 20.6873 5.846 19.9707 4.938 19.062C4.02933 18.154 3.31267 17.0917 2.788 15.875C2.26267 14.6583 2 13.3667 2 12C2 10.6167 2.26267 9.321 2.788 8.113C3.31267 6.90433 4.02933 5.846 4.938 4.938C5.846 4.02933 6.90833 3.31233 8.125 2.787C9.34167 2.26233 10.6333 2 12 2C13.3833 2 14.679 2.26233 15.887 2.787C17.0957 3.31233 18.154 4.02933 19.062 4.938C19.9707 5.846 20.6873 6.90433 21.212 8.113C21.7373 9.321 22 10.6167 22 12C22 13.3667 21.7373 14.6583 21.212 15.875C20.6873 17.0917 19.9707 18.154 19.062 19.062C18.154 19.9707 17.0957 20.6873 15.887 21.212C14.679 21.7373 13.3833 22 12 22ZM12 19.95C12.4333 19.35 12.8083 18.725 13.125 18.075C13.4417 17.425 13.7 16.7333 13.9 16H10.1C10.3 16.7333 10.5583 17.425 10.875 18.075C11.1917 18.725 11.5667 19.35 12 19.95ZM9.4 19.55C9.1 19 8.83767 18.429 8.613 17.837C8.38767 17.2457 8.2 16.6333 8.05 16H5.1C5.58333 16.8333 6.18733 17.5583 6.912 18.175C7.63733 18.7917 8.46667 19.25 9.4 19.55ZM14.6 19.55C15.5333 19.25 16.3623 18.7917 17.087 18.175C17.8123 17.5583 18.4167 16.8333 18.9 16H15.95C15.8 16.6333 15.6127 17.2457 15.388 17.837C15.1627 18.429 14.9 19 14.6 19.55ZM4.25 14H7.65C7.6 13.6667 7.56233 13.3373 7.537 13.012C7.51233 12.6873 7.5 12.35 7.5 12C7.5 11.65 7.51233 11.3127 7.537 10.988C7.56233 10.6627 7.6 10.3333 7.65 10H4.25C4.16667 10.3333 4.104 10.6627 4.062 10.988C4.02067 11.3127 4 11.65 4 12C4 12.35 4.02067 12.6873 4.062 13.012C4.104 13.3373 4.16667 13.6667 4.25 14ZM9.65 14H14.35C14.4 13.6667 14.4377 13.3373 14.463 13.012C14.4877 12.6873 14.5 12.35 14.5 12C14.5 11.65 14.4877 11.3127 14.463 10.988C14.4377 10.6627 14.4 10.3333 14.35 10H9.65C9.6 10.3333 9.56267 10.6627 9.538 10.988C9.51267 11.3127 9.5 11.65 9.5 12C9.5 12.35 9.51267 12.6873 9.538 13.012C9.56267 13.3373 9.6 13.6667 9.65 14ZM16.35 14H19.75C19.8333 13.6667 19.896 13.3373 19.938 13.012C19.9793 12.6873 20 12.35 20 12C20 11.65 19.9793 11.3127 19.938 10.988C19.896 10.6627 19.8333 10.3333 19.75 10H16.35C16.4 10.3333 16.4373 10.6627 16.462 10.988C16.4873 11.3127 16.5 11.65 16.5 12C16.5 12.35 16.4873 12.6873 16.462 13.012C16.4373 13.3373 16.4 13.6667 16.35 14ZM15.95 8H18.9C18.4167 7.16667 17.8123 6.44167 17.087 5.825C16.3623 5.20833 15.5333 4.75 14.6 4.45C14.9 5 15.1627 5.57067 15.388 6.162C15.6127 6.754 15.8 7.36667 15.95 8ZM10.1 8H13.9C13.7 7.26667 13.4417 6.575 13.125 5.925C12.8083 5.275 12.4333 4.65 12 4.05C11.5667 4.65 11.1917 5.275 10.875 5.925C10.5583 6.575 10.3 7.26667 10.1 8ZM5.1 8H8.05C8.2 7.36667 8.38767 6.754 8.613 6.162C8.83767 5.57067 9.1 5 9.4 4.45C8.46667 4.75 7.63733 5.20833 6.912 5.825C6.18733 6.44167 5.58333 7.16667 5.1 8Z" />
    </symbol>

    <symbol id="expand-more" viewBox="0 0 24 24">
        <path d="M12 15.375L6 9.37498L7.4 7.97498L12 12.575L16.6 7.97498L18 9.37498L12 15.375Z" />
    </symbol>

    <symbol id="login" viewBox="0 0 24 24">
        <path d="M12 21V19H19V5H12V3H19C19.55 3 20.021 3.19567 20.413 3.587C20.8043 3.979 21 4.45 21 5V19C21 19.55 20.8043 20.021 20.413 20.413C20.021 20.8043 19.55 21 19 21H12ZM10 17L8.625 15.55L11.175 13H3V11H11.175L8.625 8.45L10 7L15 12L10 17Z" />
    </symbol>

    <symbol id="account-circle" viewBox="0 0 24 24">
        <path d="M5.85 17.1C6.7 16.45 7.65 15.9373 8.7 15.562C9.75 15.1873 10.85 15 12 15C13.15 15 14.25 15.1873 15.3 15.562C16.35 15.9373 17.3 16.45 18.15 17.1C18.7333 16.4167 19.1877 15.6417 19.513 14.775C19.8377 13.9083 20 12.9833 20 12C20 9.78333 19.221 7.89567 17.663 6.337C16.1043 4.779 14.2167 4 12 4C9.78333 4 7.896 4.779 6.338 6.337C4.77933 7.89567 4 9.78333 4 12C4 12.9833 4.16267 13.9083 4.488 14.775C4.81267 15.6417 5.26667 16.4167 5.85 17.1ZM12 13C11.0167 13 10.1873 12.6627 9.512 11.988C8.83733 11.3127 8.5 10.4833 8.5 9.5C8.5 8.51667 8.83733 7.68733 9.512 7.012C10.1873 6.33733 11.0167 6 12 6C12.9833 6 13.8127 6.33733 14.488 7.012C15.1627 7.68733 15.5 8.51667 15.5 9.5C15.5 10.4833 15.1627 11.3127 14.488 11.988C13.8127 12.6627 12.9833 13 12 13ZM12 22C10.6167 22 9.31667 21.7373 8.1 21.212C6.88333 20.6873 5.825 19.975 4.925 19.075C4.025 18.175 3.31267 17.1167 2.788 15.9C2.26267 14.6833 2 13.3833 2 12C2 10.6167 2.26267 9.31667 2.788 8.1C3.31267 6.88333 4.025 5.825 4.925 4.925C5.825 4.025 6.88333 3.31233 8.1 2.787C9.31667 2.26233 10.6167 2 12 2C13.3833 2 14.6833 2.26233 15.9 2.787C17.1167 3.31233 18.175 4.025 19.075 4.925C19.975 5.825 20.6873 6.88333 21.212 8.1C21.7373 9.31667 22 10.6167 22 12C22 13.3833 21.7373 14.6833 21.212 15.9C20.6873 17.1167 19.975 18.175 19.075 19.075C18.175 19.975 17.1167 20.6873 15.9 21.212C14.6833 21.7373 13.3833 22 12 22ZM12 20C12.8833 20 13.7167 19.871 14.5 19.613C15.2833 19.3543 16 18.9833 16.65 18.5C16 18.0167 15.2833 17.6457 14.5 17.387C13.7167 17.129 12.8833 17 12 17C11.1167 17 10.2833 17.129 9.5 17.387C8.71667 17.6457 8 18.0167 7.35 18.5C8 18.9833 8.71667 19.3543 9.5 19.613C10.2833 19.871 11.1167 20 12 20ZM12 11C12.4333 11 12.7917 10.8583 13.075 10.575C13.3583 10.2917 13.5 9.93333 13.5 9.5C13.5 9.06667 13.3583 8.70833 13.075 8.425C12.7917 8.14167 12.4333 8 12 8C11.5667 8 11.2083 8.14167 10.925 8.425C10.6417 8.70833 10.5 9.06667 10.5 9.5C10.5 9.93333 10.6417 10.2917 10.925 10.575C11.2083 10.8583 11.5667 11 12 11Z" />
    </symbol>

    <symbol id="search" viewBox="0 0 24 24">
        <path d="M19.6 21L13.3 14.7C12.8 15.1 12.225 15.4167 11.575 15.65C10.925 15.8833 10.2333 16 9.5 16C7.68333 16 6.146 15.371 4.888 14.113C3.62933 12.8543 3 11.3167 3 9.5C3 7.68333 3.62933 6.14567 4.888 4.887C6.146 3.629 7.68333 3 9.5 3C11.3167 3 12.8543 3.629 14.113 4.887C15.371 6.14567 16 7.68333 16 9.5C16 10.2333 15.8833 10.925 15.65 11.575C15.4167 12.225 15.1 12.8 14.7 13.3L21 19.6L19.6 21ZM9.5 14C10.75 14 11.8127 13.5627 12.688 12.688C13.5627 11.8127 14 10.75 14 9.5C14 8.25 13.5627 7.18733 12.688 6.312C11.8127 5.43733 10.75 5 9.5 5C8.25 5 7.18733 5.43733 6.312 6.312C5.43733 7.18733 5 8.25 5 9.5C5 10.75 5.43733 11.8127 6.312 12.688C7.18733 13.5627 8.25 14 9.5 14Z" />
    </symbol>

    <symbol id="home" viewBox="0 0 24 24">
        <path d="M6 19H9V13H15V19H18V10L12 5.5L6 10V19ZM4 21V9L12 3L20 9V21H13V15H11V21H4Z" />
    </symbol>

    <symbol id="facebook" viewBox="0 0 24 24">
        <path d="M12 2.04004C6.5 2.04004 2 6.53004 2 12.06C2 17.06 5.66 21.21 10.44 21.96V14.96H7.9V12.06H10.44V9.85004C10.44 7.34004 11.93 5.96004 14.22 5.96004C15.31 5.96004 16.45 6.15004 16.45 6.15004V8.62004H15.19C13.95 8.62004 13.56 9.39004 13.56 10.18V12.06H16.34L15.89 14.96H13.56V21.96C15.9164 21.5879 18.0622 20.3856 19.6099 18.5701C21.1576 16.7546 22.0053 14.4457 22 12.06C22 6.53004 17.5 2.04004 12 2.04004Z" />
    </symbol>

    <symbol id="twitter" viewBox="0 0 24 24">
        <path d="M22.46 6C21.69 6.35 20.86 6.58 20 6.69C20.88 6.16 21.56 5.32 21.88 4.31C21.05 4.81 20.13 5.16 19.16 5.36C18.37 4.5 17.26 4 16 4C13.65 4 11.73 5.92 11.73 8.29C11.73 8.63 11.77 8.96 11.84 9.27C8.27998 9.09 5.10998 7.38 2.99998 4.79C2.62998 5.42 2.41998 6.16 2.41998 6.94C2.41998 8.43 3.16998 9.75 4.32998 10.5C3.61998 10.5 2.95998 10.3 2.37998 10C2.37998 10 2.37998 10 2.37998 10.03C2.37998 12.11 3.85998 13.85 5.81998 14.24C5.45998 14.34 5.07998 14.39 4.68998 14.39C4.41998 14.39 4.14998 14.36 3.88998 14.31C4.42998 16 5.99998 17.26 7.88998 17.29C6.42998 18.45 4.57998 19.13 2.55998 19.13C2.21998 19.13 1.87998 19.11 1.53998 19.07C3.43998 20.29 5.69998 21 8.11998 21C16 21 20.33 14.46 20.33 8.79C20.33 8.6 20.33 8.42 20.32 8.23C21.16 7.63 21.88 6.87 22.46 6Z" />
    </symbol>

    <symbol id="youtube" viewBox="0 0 24 24">
        <path d="M10 15L15.19 12L10 9V15ZM21.56 7.17C21.69 7.64 21.78 8.27 21.84 9.07C21.91 9.87 21.94 10.56 21.94 11.16L22 12C22 14.19 21.84 15.8 21.56 16.83C21.31 17.73 20.73 18.31 19.83 18.56C19.36 18.69 18.5 18.78 17.18 18.84C15.88 18.91 14.69 18.94 13.59 18.94L12 19C7.81 19 5.2 18.84 4.17 18.56C3.27 18.31 2.69 17.73 2.44 16.83C2.31 16.36 2.22 15.73 2.16 14.93C2.09 14.13 2.06 13.44 2.06 12.84L2 12C2 9.81 2.16 8.2 2.44 7.17C2.69 6.27 3.27 5.69 4.17 5.44C4.64 5.31 5.5 5.22 6.82 5.16C8.12 5.09 9.31 5.06 10.41 5.06L12 5C16.19 5 18.8 5.16 19.83 5.44C20.73 5.69 21.31 6.27 21.56 7.17Z" />
    </symbol>

    <symbol id="instagram" viewBox="0 0 24 24">
        <path d="M7.8 2H16.2C19.4 2 22 4.6 22 7.8V16.2C22 17.7383 21.3889 19.2135 20.3012 20.3012C19.2135 21.3889 17.7383 22 16.2 22H7.8C4.6 22 2 19.4 2 16.2V7.8C2 6.26174 2.61107 4.78649 3.69878 3.69878C4.78649 2.61107 6.26174 2 7.8 2M7.6 4C6.64522 4 5.72955 4.37928 5.05442 5.05442C4.37928 5.72955 4 6.64522 4 7.6V16.4C4 18.39 5.61 20 7.6 20H16.4C17.3548 20 18.2705 19.6207 18.9456 18.9456C19.6207 18.2705 20 17.3548 20 16.4V7.6C20 5.61 18.39 4 16.4 4H7.6ZM17.25 5.5C17.5815 5.5 17.8995 5.6317 18.1339 5.86612C18.3683 6.10054 18.5 6.41848 18.5 6.75C18.5 7.08152 18.3683 7.39946 18.1339 7.63388C17.8995 7.8683 17.5815 8 17.25 8C16.9185 8 16.6005 7.8683 16.3661 7.63388C16.1317 7.39946 16 7.08152 16 6.75C16 6.41848 16.1317 6.10054 16.3661 5.86612C16.6005 5.6317 16.9185 5.5 17.25 5.5ZM12 7C13.3261 7 14.5979 7.52678 15.5355 8.46447C16.4732 9.40215 17 10.6739 17 12C17 13.3261 16.4732 14.5979 15.5355 15.5355C14.5979 16.4732 13.3261 17 12 17C10.6739 17 9.40215 16.4732 8.46447 15.5355C7.52678 14.5979 7 13.3261 7 12C7 10.6739 7.52678 9.40215 8.46447 8.46447C9.40215 7.52678 10.6739 7 12 7M12 9C11.2044 9 10.4413 9.31607 9.87868 9.87868C9.31607 10.4413 9 11.2044 9 12C9 12.7956 9.31607 13.5587 9.87868 14.1213C10.4413 14.6839 11.2044 15 12 15C12.7956 15 13.5587 14.6839 14.1213 14.1213C14.6839 13.5587 15 12.7956 15 12C15 11.2044 14.6839 10.4413 14.1213 9.87868C13.5587 9.31607 12.7956 9 12 9Z" />
    </symbol>

    <symbol id="linkedin" viewBox="0 0 24 24">
        <path d="M19 3C19.5304 3 20.0391 3.21071 20.4142 3.58579C20.7893 3.96086 21 4.46957 21 5V19C21 19.5304 20.7893 20.0391 20.4142 20.4142C20.0391 20.7893 19.5304 21 19 21H5C4.46957 21 3.96086 20.7893 3.58579 20.4142C3.21071 20.0391 3 19.5304 3 19V5C3 4.46957 3.21071 3.96086 3.58579 3.58579C3.96086 3.21071 4.46957 3 5 3H19ZM18.5 18.5V13.2C18.5 12.3354 18.1565 11.5062 17.5452 10.8948C16.9338 10.2835 16.1046 9.94 15.24 9.94C14.39 9.94 13.4 10.46 12.92 11.24V10.13H10.13V18.5H12.92V13.57C12.92 12.8 13.54 12.17 14.31 12.17C14.6813 12.17 15.0374 12.3175 15.2999 12.5801C15.5625 12.8426 15.71 13.1987 15.71 13.57V18.5H18.5ZM6.88 8.56C7.32556 8.56 7.75288 8.383 8.06794 8.06794C8.383 7.75288 8.56 7.32556 8.56 6.88C8.56 5.95 7.81 5.19 6.88 5.19C6.43178 5.19 6.00193 5.36805 5.68499 5.68499C5.36805 6.00193 5.19 6.43178 5.19 6.88C5.19 7.81 5.95 8.56 6.88 8.56ZM8.27 18.5V10.13H5.5V18.5H8.27Z" />
    </symbol>

    <symbol id="arrow-right-alt" viewBox="0 0 24 24">
        <path d="M14 18L12.6 16.55L16.15 13H4V11H16.15L12.6 7.45L14 6L20 12L14 18Z" />
    </symbol>

    <symbol id="arrow-right-alt" viewBox="0 0 24 24">
        <path d="M14 18L12.6 16.55L16.15 13H4V11H16.15L12.6 7.45L14 6L20 12L14 18Z" />
    </symbol>

    <symbol id="open-in-new" viewBox="0 0 24 24">
        <path d="M5 21C4.45 21 3.979 20.8043 3.587 20.413C3.19567 20.021 3 19.55 3 19V5C3 4.45 3.19567 3.979 3.587 3.587C3.979 3.19567 4.45 3 5 3H12V5H5V19H19V12H21V19C21 19.55 20.8043 20.021 20.413 20.413C20.021 20.8043 19.55 21 19 21H5ZM9.7 15.7L8.3 14.3L17.6 5H14V3H21V10H19V6.4L9.7 15.7Z" />
    </symbol>

    <symbol id="calendar-tody" viewBox="0 0 24 24">
        <path d="M5 22C4.45 22 3.979 21.8043 3.587 21.413C3.19567 21.021 3 20.55 3 20V6C3 5.45 3.19567 4.97933 3.587 4.588C3.979 4.196 4.45 4 5 4H6V2H8V4H16V2H18V4H19C19.55 4 20.021 4.196 20.413 4.588C20.8043 4.97933 21 5.45 21 6V20C21 20.55 20.8043 21.021 20.413 21.413C20.021 21.8043 19.55 22 19 22H5ZM5 20H19V10H5V20ZM5 8H19V6H5V8Z" />
    </symbol>

    <symbol id="schedule" viewBox="0 0 24 24">
        <path d="M15.3 16.7L16.7 15.3L13 11.6V7H11V12.4L15.3 16.7ZM12 22C10.6167 22 9.31667 21.7373 8.1 21.212C6.88333 20.6873 5.825 19.975 4.925 19.075C4.025 18.175 3.31267 17.1167 2.788 15.9C2.26267 14.6833 2 13.3833 2 12C2 10.6167 2.26267 9.31667 2.788 8.1C3.31267 6.88333 4.025 5.825 4.925 4.925C5.825 4.025 6.88333 3.31233 8.1 2.787C9.31667 2.26233 10.6167 2 12 2C13.3833 2 14.6833 2.26233 15.9 2.787C17.1167 3.31233 18.175 4.025 19.075 4.925C19.975 5.825 20.6873 6.88333 21.212 8.1C21.7373 9.31667 22 10.6167 22 12C22 13.3833 21.7373 14.6833 21.212 15.9C20.6873 17.1167 19.975 18.175 19.075 19.075C18.175 19.975 17.1167 20.6873 15.9 21.212C14.6833 21.7373 13.3833 22 12 22ZM12 20C14.2167 20 16.1043 19.221 17.663 17.663C19.221 16.1043 20 14.2167 20 12C20 9.78333 19.221 7.89567 17.663 6.337C16.1043 4.779 14.2167 4 12 4C9.78333 4 7.896 4.779 6.338 6.337C4.77933 7.89567 4 9.78333 4 12C4 14.2167 4.77933 16.1043 6.338 17.663C7.896 19.221 9.78333 20 12 20Z" />
    </symbol>

    <symbol id="mail" viewBox="0 0 24 24">
        <path d="M4 20C3.45 20 2.97917 19.8042 2.5875 19.4125C2.19583 19.0208 2 18.55 2 18V6C2 5.45 2.19583 4.97917 2.5875 4.5875C2.97917 4.19583 3.45 4 4 4H20C20.55 4 21.0208 4.19583 21.4125 4.5875C21.8042 4.97917 22 5.45 22 6V18C22 18.55 21.8042 19.0208 21.4125 19.4125C21.0208 19.8042 20.55 20 20 20H4ZM12 13L4 8V18H20V8L12 13ZM12 11L20 6H4L12 11ZM4 8V6V18V8Z" />
    </symbol>

    <symbol id="share" viewBox="0 0 24 24">
        <path d="M18 22C17.1667 22 16.4583 21.7083 15.875 21.125C15.2917 20.5417 15 19.8333 15 19C15 18.8833 15.0083 18.7623 15.025 18.637C15.0417 18.5123 15.0667 18.4 15.1 18.3L8.05 14.2C7.76667 14.45 7.45 14.6457 7.1 14.787C6.75 14.929 6.38333 15 6 15C5.16667 15 4.45833 14.7083 3.875 14.125C3.29167 13.5417 3 12.8333 3 12C3 11.1667 3.29167 10.4583 3.875 9.875C4.45833 9.29167 5.16667 9 6 9C6.38333 9 6.75 9.07067 7.1 9.212C7.45 9.354 7.76667 9.55 8.05 9.8L15.1 5.7C15.0667 5.6 15.0417 5.48767 15.025 5.363C15.0083 5.23767 15 5.11667 15 5C15 4.16667 15.2917 3.45833 15.875 2.875C16.4583 2.29167 17.1667 2 18 2C18.8333 2 19.5417 2.29167 20.125 2.875C20.7083 3.45833 21 4.16667 21 5C21 5.83333 20.7083 6.54167 20.125 7.125C19.5417 7.70833 18.8333 8 18 8C17.6167 8 17.25 7.929 16.9 7.787C16.55 7.64567 16.2333 7.45 15.95 7.2L8.9 11.3C8.93333 11.4 8.95833 11.5123 8.975 11.637C8.99167 11.7623 9 11.8833 9 12C9 12.1167 8.99167 12.2373 8.975 12.362C8.95833 12.4873 8.93333 12.6 8.9 12.7L15.95 16.8C16.2333 16.55 16.55 16.354 16.9 16.212C17.25 16.0707 17.6167 16 18 16C18.8333 16 19.5417 16.2917 20.125 16.875C20.7083 17.4583 21 18.1667 21 19C21 19.8333 20.7083 20.5417 20.125 21.125C19.5417 21.7083 18.8333 22 18 22ZM18 6C18.2833 6 18.5207 5.90433 18.712 5.713C18.904 5.521 19 5.28333 19 5C19 4.71667 18.904 4.479 18.712 4.287C18.5207 4.09567 18.2833 4 18 4C17.7167 4 17.4793 4.09567 17.288 4.287C17.096 4.479 17 4.71667 17 5C17 5.28333 17.096 5.521 17.288 5.713C17.4793 5.90433 17.7167 6 18 6ZM6 13C6.28333 13 6.521 12.904 6.713 12.712C6.90433 12.5207 7 12.2833 7 12C7 11.7167 6.90433 11.479 6.713 11.287C6.521 11.0957 6.28333 11 6 11C5.71667 11 5.479 11.0957 5.287 11.287C5.09567 11.479 5 11.7167 5 12C5 12.2833 5.09567 12.5207 5.287 12.712C5.479 12.904 5.71667 13 6 13ZM18 20C18.2833 20 18.5207 19.904 18.712 19.712C18.904 19.5207 19 19.2833 19 19C19 18.7167 18.904 18.4793 18.712 18.288C18.5207 18.096 18.2833 18 18 18C17.7167 18 17.4793 18.096 17.288 18.288C17.096 18.4793 17 18.7167 17 19C17 19.2833 17.096 19.5207 17.288 19.712C17.4793 19.904 17.7167 20 18 20Z" />
    </symbol>

    <symbol id="newspapper" viewBox="0 0 24 24">
        <path d="M4 21C3.45 21 2.97933 20.8043 2.588 20.413C2.196 20.021 2 19.55 2 19V3L3.675 4.675L5.325 3L7 4.675L8.675 3L10.325 4.675L12 3L13.675 4.675L15.325 3L17 4.675L18.675 3L20.325 4.675L22 3V19C22 19.55 21.8043 20.021 21.413 20.413C21.021 20.8043 20.55 21 20 21H4ZM4 19H11V13H4V19ZM13 19H20V17H13V19ZM13 15H20V13H13V15ZM4 11H20V8H4V11Z" />
    </symbol>

    <symbol id="arrow-forward" viewBox="0 0 24 24">
        <path d="M12 20L10.575 18.6L16.175 13H4V11H16.175L10.575 5.4L12 4L20 12L12 20Z" />
    </symbol>

    <symbol id="location-on" viewBox="0 0 24 24">
        <path d="M12 12C12.55 12 13.021 11.804 13.413 11.412C13.8043 11.0207 14 10.55 14 10C14 9.45 13.8043 8.979 13.413 8.587C13.021 8.19567 12.55 8 12 8C11.45 8 10.9793 8.19567 10.588 8.587C10.196 8.979 10 9.45 10 10C10 10.55 10.196 11.0207 10.588 11.412C10.9793 11.804 11.45 12 12 12ZM12 19.35C14.0333 17.4833 15.5417 15.7873 16.525 14.262C17.5083 12.7373 18 11.3833 18 10.2C18 8.38333 17.4207 6.89567 16.262 5.737C15.104 4.579 13.6833 4 12 4C10.3167 4 8.89567 4.579 7.737 5.737C6.579 6.89567 6 8.38333 6 10.2C6 11.3833 6.49167 12.7373 7.475 14.262C8.45833 15.7873 9.96667 17.4833 12 19.35ZM12 22C9.31667 19.7167 7.31267 17.5957 5.988 15.637C4.66267 13.679 4 11.8667 4 10.2C4 7.7 4.80433 5.70833 6.413 4.225C8.021 2.74167 9.88333 2 12 2C14.1167 2 15.979 2.74167 17.587 4.225C19.1957 5.70833 20 7.7 20 10.2C20 11.8667 19.3377 13.679 18.013 15.637C16.6877 17.5957 14.6833 19.7167 12 22Z" />
    </symbol>

    <symbol height="search" viewBox="0 0 24 24">
        <path d="M19.6 21L13.3 14.7C12.8 15.1 12.225 15.4167 11.575 15.65C10.925 15.8833 10.2333 16 9.5 16C7.68333 16 6.146 15.371 4.888 14.113C3.62933 12.8543 3 11.3167 3 9.5C3 7.68333 3.62933 6.14567 4.888 4.887C6.146 3.629 7.68333 3 9.5 3C11.3167 3 12.8543 3.629 14.113 4.887C15.371 6.14567 16 7.68333 16 9.5C16 10.2333 15.8833 10.925 15.65 11.575C15.4167 12.225 15.1 12.8 14.7 13.3L21 19.6L19.6 21ZM9.5 14C10.75 14 11.8127 13.5627 12.688 12.688C13.5627 11.8127 14 10.75 14 9.5C14 8.25 13.5627 7.18733 12.688 6.312C11.8127 5.43733 10.75 5 9.5 5C8.25 5 7.18733 5.43733 6.312 6.312C5.43733 7.18733 5 8.25 5 9.5C5 10.75 5.43733 11.8127 6.312 12.688C7.18733 13.5627 8.25 14 9.5 14Z" />
    </symbol>

    <symbol id="navigate-next" viewBox="0 0 24 24">
        <path d="M9.4 18L8 16.6L12.6 12L8 7.4L9.4 6L15.4 12L9.4 18Z" />
    </symbol>

    <symbol id="navigate-before" viewBox="0 0 24 24">
        <path d="M14 18L8 12L14 6L15.4 7.4L10.8 12L15.4 16.6L14 18Z" />
    </symbol>

    <symbol id="keyboard-double-arrow-left" viewBox="0 0 24 24">
        <path d="M11 18L5 12L11 6L12.4 7.4L7.825 12L12.4 16.6L11 18ZM17.6 18L11.6 12L17.6 6L19 7.4L14.425 12L19 16.6L17.6 18Z" />
    </symbol>

    <symbol id="keyboard-double-arrow-right" viewBox="0 0 24 24">
        <path d="M6.4 18L5 16.6L9.575 12L5 7.4L6.4 6L12.4 12L6.4 18ZM13 18L11.6 16.6L16.175 12L11.6 7.4L13 6L19 12L13 18Z" />
    </symbol>

    <symbol id="more-horiz" viewBox="0 0 24 24">
        <path d="M6 14C5.45 14 4.97933 13.804 4.588 13.412C4.196 13.0207 4 12.55 4 12C4 11.45 4.196 10.979 4.588 10.587C4.97933 10.1957 5.45 10 6 10C6.55 10 7.02067 10.1957 7.412 10.587C7.804 10.979 8 11.45 8 12C8 12.55 7.804 13.0207 7.412 13.412C7.02067 13.804 6.55 14 6 14ZM12 14C11.45 14 10.9793 13.804 10.588 13.412C10.196 13.0207 10 12.55 10 12C10 11.45 10.196 10.979 10.588 10.587C10.9793 10.1957 11.45 10 12 10C12.55 10 13.021 10.1957 13.413 10.587C13.8043 10.979 14 11.45 14 12C14 12.55 13.8043 13.0207 13.413 13.412C13.021 13.804 12.55 14 12 14ZM18 14C17.45 14 16.979 13.804 16.587 13.412C16.1957 13.0207 16 12.55 16 12C16 11.45 16.1957 10.979 16.587 10.587C16.979 10.1957 17.45 10 18 10C18.55 10 19.021 10.1957 19.413 10.587C19.8043 10.979 20 11.45 20 12C20 12.55 19.8043 13.0207 19.413 13.412C19.021 13.804 18.55 14 18 14Z" />
    </symbol>


</svg>