<svg width="210" height="128" viewBox="0 0 210 128" fill="none" xmlns="http://www.w3.org/2000/svg">
    <path d="M40.3228 6.39802L29.9509 0.653564V15.9574L40.3228 21.7023L50.7573 15.9574V0.653564L40.3228 6.39802ZM47.6727 5.86556V14.2045L40.3228 18.1373L33.0631 14.2533V5.99648L40.3228 9.88145L47.6727 5.86556Z" fill="#F50019" />
    <path d="M40.3394 28.089L29.9504 22.156V25.9626L40.2002 31.7516L40.3389 31.8287L50.7268 25.9626V22.1555L40.3394 28.089Z" fill="#0069B4" />
    <path d="M59.3931 0.653564V21.4189L69.7745 15.3963L80.1562 21.4189V0.653564H59.3931ZM77.1038 3.74121V16.0868L69.7745 11.8353L62.4444 16.0868V3.74071L77.1038 3.74121Z" fill="#E66E23" />
    <path d="M69.7364 20.8396L59.3474 26.7067V30.5136L69.7364 24.5806L80.1238 30.5136V26.707L69.7364 20.8396Z" fill="#0069B4" />
    <path d="M10.9727 28.089L0.58374 22.156V25.9626L10.8335 31.7516L10.9722 31.8287L21.3604 25.9626V22.1555L10.9727 28.089Z" fill="#0069B4" />
    <path d="M10.9727 0.867188C8.91793 0.86694 6.90921 1.47603 5.20059 2.61743C3.49197 3.75883 2.1602 5.38128 1.37369 7.27959C0.587188 9.17789 0.381274 11.2668 0.781992 13.2821C1.18271 15.2975 2.17206 17.1487 3.62493 18.6018C5.0778 20.0548 6.92893 21.0444 8.94422 21.4454C10.9595 21.8463 13.0485 21.6407 14.9469 20.8544C16.8453 20.0681 18.4679 18.7365 19.6095 17.028C20.7511 15.3196 21.3604 13.3109 21.3604 11.2561C21.3575 8.50192 20.2622 5.86134 18.3148 3.9137C16.3674 1.96606 13.7269 0.870435 10.9727 0.867188ZM18.2788 11.2561C18.2788 12.7012 17.8504 14.1138 17.0475 15.3154C16.2447 16.5169 15.1036 17.4535 13.7686 18.0065C12.4335 18.5595 10.9644 18.7042 9.54714 18.4223C8.12983 18.1404 6.82795 17.4445 5.80613 16.4227C4.78431 15.4009 4.08845 14.099 3.80654 12.6817C3.52463 11.2644 3.66934 9.79533 4.22237 8.46026C4.7754 7.1252 5.7119 5.98411 6.91346 5.18131C8.11501 4.3785 9.52765 3.95003 10.9727 3.95008C12.9096 3.95213 14.7665 4.72236 16.1362 6.09179C17.5058 7.46123 18.2764 9.31804 18.2788 11.2549V11.2561Z" fill="#00AAA0" />
    <path d="M20.5187 54.4325C20.5187 59.819 16.1989 63.9533 10.4923 63.9533C4.78562 63.9533 0.465576 59.8461 0.465576 54.4325C0.465576 48.9922 4.78562 44.9656 10.4923 44.9656C16.1989 44.9656 20.5187 49.0185 20.5187 54.4325ZM4.78562 54.4325C4.77609 55.9706 5.37734 57.4496 6.45733 58.5448C7.53733 59.6399 9.0078 60.2617 10.5459 60.2736C13.6663 60.2736 16.1989 57.7129 16.1989 54.4325C16.1989 51.1521 13.6663 48.6453 10.5459 48.6453C9.78645 48.6429 9.03412 48.7911 8.3324 49.0814C7.63069 49.3717 6.99352 49.7984 6.4578 50.3366C5.92208 50.8748 5.49845 51.514 5.21141 52.2171C4.92438 52.9201 4.77966 53.6732 4.78562 54.4325Z" fill="white" />
    <path d="M32.5405 45.0989C37.2881 45.0989 40.0077 47.4458 40.0077 51.5801C40.0077 55.9269 37.2881 58.4325 32.5405 58.4325H28.834V63.7667H24.6213V45.0989H32.5405ZM28.834 54.912H32.3279C34.6748 54.912 36.0079 53.8456 36.0079 51.7125C36.0079 49.632 34.6748 48.5921 32.3279 48.5921H28.834V54.912Z" fill="white" />
    <path d="M48.2432 48.5931V52.6468H57.257V56.1397H48.2432V60.2737H58.5372V63.7667H44.0308V45.0989H58.2441V48.5931H48.2432Z" fill="white" />
    <path d="M76.2399 63.7667L67.1993 51.7926V63.7667H63.1724V45.0989H67.0123L76.0789 57.0997V45.0989H80.079V63.7667H76.2399Z" fill="white" />
    <path d="M6.01224 80.5066V84.5601H15.0258V88.053H6.01224V92.1873H16.3063V95.6812H1.79834V77.0125H16.0119V80.5066H6.01224Z" fill="white" />
    <path d="M28.862 77.0125C34.6493 77.0125 38.6752 80.8266 38.6752 86.3462C38.6752 91.8403 34.5947 95.6803 28.7013 95.6803H20.9409V77.0125H28.862ZM25.1553 92.1327H28.9682C32.0886 92.1327 34.3817 89.7858 34.3817 86.3725C34.3817 82.9321 31.9822 80.5582 28.7814 80.5582H25.1553V92.1327Z" fill="white" />
    <path d="M59.2838 87.866C59.2838 92.8006 56.0572 95.8673 50.9103 95.8673C45.7364 95.8673 42.4302 92.8006 42.4302 87.866V77.0125H46.6441V87.866C46.6441 90.5601 48.4032 92.1873 50.9103 92.1873C53.4174 92.1873 55.0701 90.5601 55.0701 87.866V77.0125H59.2838V87.866Z" fill="white" />
    <path d="M80.3461 79.9726L77.8928 82.9596C76.6123 81.4924 74.7726 80.5333 73.0388 80.5333C72.2859 80.5243 71.5389 80.6668 70.8423 80.9524C70.1456 81.2379 69.5135 81.6607 68.9836 82.1956C68.4537 82.7304 68.0368 83.3664 67.7577 84.0657C67.4787 84.765 67.3431 85.5133 67.3591 86.266C67.3591 89.5204 69.8392 92.0265 73.0388 92.0265C74.7188 92.0265 76.5587 91.1723 77.8928 89.8396L80.3728 92.5322C78.3997 94.5599 75.5459 95.8664 72.8262 95.8664C67.2515 95.8664 63.0381 91.7321 63.0381 86.3186C63.0381 80.9321 67.3314 76.8784 72.9842 76.8784C75.7472 76.9129 78.388 78.0228 80.3461 79.9726Z" fill="white" />
    <path d="M87.702 92.0529L86.2348 95.6802H81.8867L89.9941 77.0125H94.3409L102.316 95.6812H97.8101L96.3429 92.0539L87.702 92.0529ZM92.0489 81.4136L89.0886 88.6668H94.982L92.0489 81.4136Z" fill="white" />
    <path d="M111.698 80.586V95.6812H107.484V80.586H101.804V77.0125H117.404V80.586H111.698Z" fill="white" />
    <path d="M121.001 95.6812V77.0125H125.213V95.6812H121.001Z" fill="white" />
    <path d="M149.399 86.3461C149.399 91.7328 145.079 95.8671 139.372 95.8671C133.665 95.8671 129.345 91.7596 129.345 86.3461C129.345 80.9058 133.665 76.8792 139.372 76.8792C145.079 76.8792 149.399 80.9328 149.399 86.3461ZM133.665 86.3461C133.656 87.8842 134.257 89.3632 135.337 90.4583C136.417 91.5535 137.888 92.1753 139.426 92.1872C142.546 92.1872 145.079 89.6265 145.079 86.3461C145.079 83.0657 142.546 80.5588 139.426 80.5588C138.666 80.5564 137.914 80.7046 137.212 80.9949C136.51 81.2852 135.873 81.7119 135.338 82.2501C134.802 82.7883 134.378 83.4275 134.091 84.1306C133.804 84.8337 133.659 85.5867 133.665 86.3461Z" fill="white" />
    <path d="M166.568 95.6812L157.528 83.7072V95.6812H153.501V77.0125H157.341L166.407 89.0133V77.0125H170.408V95.6812H166.568Z" fill="white" />
    <path d="M179.522 92.0529L178.056 95.6802H173.71L181.817 77.0125H186.163L194.137 95.6812H189.631L188.165 92.0539L179.522 92.0529ZM183.869 81.4136L180.909 88.6668H186.803L183.869 81.4136Z" fill="white" />
    <path d="M209.626 92.0013V95.6812H197.412V77.0125H201.625V92.0013H209.626Z" fill="white" />
    <path d="M10.3053 122.258H6.01224V127.592H1.79834V108.924H9.90572C14.7853 108.924 17.5585 111.271 17.5585 115.405C17.5585 118.284 16.3318 120.365 14.0658 121.432L18.0386 127.592H13.2655L10.3053 122.258ZM9.90472 118.739C12.2248 118.739 13.5576 117.672 13.5576 115.539C13.5576 113.458 12.2248 112.419 9.90472 112.419H6.01224V118.739H9.90472Z" fill="white" />
    <path d="M26.6482 112.419V116.472H35.6621V119.965H26.6482V124.099H36.9423V127.592H22.4346V108.924H36.6479V112.418L26.6482 112.419Z" fill="white" />
    <path d="M55.4976 110.765L53.8705 114.259C51.8973 113.086 49.5504 112.338 48.0574 112.338C46.644 112.338 45.6837 112.845 45.6837 113.859C45.6837 117.298 55.6308 115.379 55.604 122.098C55.604 125.753 52.4313 127.726 48.297 127.726C45.2917 127.713 42.3821 126.668 40.0557 124.765L41.7354 121.325C43.656 123.032 46.3769 124.125 48.3498 124.125C50.0834 124.125 51.1233 123.485 51.1233 122.339C51.1233 118.819 41.1759 120.872 41.1759 114.259C41.1759 110.872 44.0823 108.739 48.4036 108.739C50.9117 108.734 53.3703 109.436 55.4976 110.765Z" fill="white" />
    <path d="M78.6137 118.259C78.6137 123.645 74.2937 127.779 68.5872 127.779C62.8808 127.779 58.5605 123.672 58.5605 118.259C58.5605 112.818 62.8806 108.792 68.5872 108.792C74.2939 108.792 78.6137 112.845 78.6137 118.259ZM62.8806 118.259C62.8711 119.797 63.4724 121.276 64.5524 122.371C65.6324 123.466 67.1028 124.088 68.6408 124.1C71.7613 124.1 74.2937 121.539 74.2937 118.259C74.2937 114.979 71.7613 112.471 68.6408 112.471C67.8814 112.469 67.1291 112.617 66.4273 112.908C65.7256 113.198 65.0884 113.624 64.5527 114.163C64.017 114.701 63.5933 115.34 63.3063 116.043C63.0193 116.746 62.8746 117.499 62.8806 118.259Z" fill="white" />
    <path d="M99.2228 119.778C99.2228 124.713 95.9962 127.779 90.849 127.779C85.6751 127.779 82.3691 124.713 82.3691 119.778V108.924H86.5828V119.778C86.5828 122.472 88.3422 124.099 90.849 124.099C93.3559 124.099 95.0091 122.472 95.0091 119.778V108.924H99.2228V119.778Z" fill="white" />
    <path d="M112.818 122.258H108.525V127.592H104.311V108.924H112.419C117.298 108.924 120.071 111.271 120.071 115.405C120.071 118.284 118.845 120.365 116.578 121.432L120.552 127.592H115.778L112.818 122.258ZM112.418 118.739C114.738 118.739 116.071 117.672 116.071 115.539C116.071 113.458 114.738 112.419 112.418 112.419H108.525V118.739H112.418Z" fill="white" />
    <path d="M140.921 111.885L138.468 114.872C137.189 113.405 135.348 112.446 133.615 112.446C132.862 112.437 132.115 112.579 131.418 112.864C130.721 113.15 130.089 113.573 129.559 114.108C129.029 114.642 128.612 115.278 128.333 115.978C128.054 116.677 127.918 117.426 127.934 118.178C127.934 121.433 130.414 123.939 133.615 123.939C135.295 123.939 137.135 123.085 138.468 121.752L140.948 124.445C138.975 126.472 136.121 127.779 133.401 127.779C127.828 127.779 123.613 123.644 123.613 118.231C123.613 112.844 127.906 108.791 133.56 108.791C136.323 108.826 138.963 109.936 140.921 111.885Z" fill="white" />
    <path d="M148.995 112.419V116.472H158.009V119.965H148.995V124.099H159.291V127.592H144.783V108.924H158.996V112.418L148.995 112.419Z" fill="white" />
    <path d="M177.846 110.765L176.219 114.259C174.246 113.086 171.899 112.338 170.406 112.338C168.993 112.338 168.032 112.845 168.032 113.859C168.032 117.298 177.979 115.379 177.953 122.098C177.953 125.753 174.78 127.726 170.646 127.726C167.641 127.713 164.731 126.668 162.405 124.765L164.085 121.325C166.006 123.032 168.726 124.125 170.699 124.125C172.433 124.125 173.473 123.485 173.473 122.339C173.473 118.819 163.526 120.872 163.526 114.259C163.526 110.872 166.432 108.739 170.753 108.739C173.261 108.734 175.719 109.436 177.846 110.765Z" fill="white" />
</svg>