<svg width="74" height="28" viewBox="0 0 74 28" fill="none" xmlns="http://www.w3.org/2000/svg">
    <path d="M37.2525 5.15981L27.9368 0V13.745L37.2525 18.905L46.6242 13.745V0.000714659L37.2525 5.15981ZM43.8548 4.68144V12.1711L37.2525 15.7035L30.7312 12.215V4.79895L37.2525 8.2884L43.8548 4.68144Z" fill="#F50019" />
    <path d="M37.2673 24.6414L27.9368 19.3121V22.7313L37.1429 27.9307L37.2675 28L46.597 22.7313V19.3121L37.2673 24.6414Z" fill="#0069B4" />
    <path d="M55.3512 0.861816V19.5123L64.6757 14.1031L74 19.5123V0.861816H55.3512ZM71.2585 3.63503V14.7238L64.6757 10.9052L58.0917 14.7238V3.63503H71.2585Z" fill="#E66E23" />
    <path d="M64.6413 18.9932L55.3109 24.2629V27.682L64.6413 22.3527L73.9708 27.682V24.2629L64.6413 18.9932Z" fill="#0069B4" />
    <path d="M9.9921 24.6414L0.661621 19.3121V22.7313L9.86744 27.9307L9.9921 28L19.3216 22.7313V19.3121L9.9921 24.6414Z" fill="#0069B4" />
    <path d="M9.99214 0.192261C8.14682 0.192214 6.34292 0.739374 4.80858 1.76455C3.27423 2.78972 2.07834 4.24687 1.37215 5.95171C0.665955 7.65656 0.481169 9.53253 0.841162 11.3424C1.20115 13.1523 2.08976 14.8147 3.39459 16.1196C4.69943 17.4244 6.3619 18.313 8.17176 18.673C9.98163 19.033 11.8576 18.8482 13.5624 18.142C15.2673 17.4358 16.7244 16.2399 17.7496 14.7056C18.7748 13.1712 19.3219 11.3673 19.3219 9.52202C19.319 7.0485 18.3351 4.67713 16.5861 2.92809C14.837 1.17905 12.4657 0.195162 9.99214 0.192261ZM16.5539 9.52202C16.554 10.82 16.1692 12.0888 15.4482 13.168C14.7272 14.2472 13.7023 15.0884 12.5032 15.5852C11.304 16.0819 9.98454 16.2119 8.71154 15.9587C7.43854 15.7055 6.26921 15.0805 5.35143 14.1627C4.43366 13.2449 3.80865 12.0756 3.55546 10.8026C3.30227 9.52962 3.43226 8.21012 3.929 7.011C4.42575 5.81189 5.26692 4.78701 6.34616 4.06597C7.42539 3.34493 8.6942 2.96013 9.99214 2.96023C11.7319 2.96212 13.3998 3.65406 14.6299 4.88422C15.8601 6.11439 16.552 7.78231 16.5539 9.52202Z" fill="#00AAA0" />
</svg>