<svg width="0" height="0" style="position: absolute;" hidden>

    <symbol id="language" viewBox="0 0 18 18">
        <path d="M8.99999 17.3337C7.8611 17.3337 6.78471 17.1148 5.77082 16.677C4.75693 16.2398 3.87166 15.6425 3.11499 14.8853C2.35777 14.1287 1.76055 13.2434 1.32332 12.2295C0.885545 11.2156 0.666656 10.1392 0.666656 9.00033C0.666656 7.84755 0.885545 6.76783 1.32332 5.76116C1.76055 4.75394 2.35777 3.87199 3.11499 3.11533C3.87166 2.3581 4.75693 1.7606 5.77082 1.32283C6.78471 0.885603 7.8611 0.666992 8.99999 0.666992C10.1528 0.666992 11.2325 0.885603 12.2392 1.32283C13.2464 1.7606 14.1283 2.3581 14.885 3.11533C15.6422 3.87199 16.2394 4.75394 16.6767 5.76116C17.1144 6.76783 17.3333 7.84755 17.3333 9.00033C17.3333 10.1392 17.1144 11.2156 16.6767 12.2295C16.2394 13.2434 15.6422 14.1287 14.885 14.8853C14.1283 15.6425 13.2464 16.2398 12.2392 16.677C11.2325 17.1148 10.1528 17.3337 8.99999 17.3337ZM8.99999 15.6253C9.3611 15.1253 9.6736 14.6045 9.93749 14.0628C10.2014 13.5212 10.4167 12.9448 10.5833 12.3337H7.41666C7.58332 12.9448 7.7986 13.5212 8.06249 14.0628C8.32638 14.6045 8.63888 15.1253 8.99999 15.6253ZM6.83332 15.292C6.58332 14.8337 6.36471 14.3578 6.17749 13.8645C5.98971 13.3717 5.83332 12.8614 5.70832 12.3337H3.24999C3.65277 13.0281 4.1561 13.6323 4.75999 14.1462C5.36443 14.66 6.05555 15.042 6.83332 15.292ZM11.1667 15.292C11.9444 15.042 12.6353 14.66 13.2392 14.1462C13.8436 13.6323 14.3472 13.0281 14.75 12.3337H12.2917C12.1667 12.8614 12.0105 13.3717 11.8233 13.8645C11.6355 14.3578 11.4167 14.8337 11.1667 15.292ZM2.54166 10.667H5.37499C5.33332 10.3892 5.30193 10.1148 5.28082 9.84366C5.26027 9.5731 5.24999 9.29199 5.24999 9.00033C5.24999 8.70866 5.26027 8.42755 5.28082 8.15699C5.30193 7.88588 5.33332 7.61144 5.37499 7.33366H2.54166C2.47221 7.61144 2.41999 7.88588 2.38499 8.15699C2.35055 8.42755 2.33332 8.70866 2.33332 9.00033C2.33332 9.29199 2.35055 9.5731 2.38499 9.84366C2.41999 10.1148 2.47221 10.3892 2.54166 10.667ZM7.04166 10.667H10.9583C11 10.3892 11.0314 10.1148 11.0525 9.84366C11.073 9.5731 11.0833 9.29199 11.0833 9.00033C11.0833 8.70866 11.073 8.42755 11.0525 8.15699C11.0314 7.88588 11 7.61144 10.9583 7.33366H7.04166C6.99999 7.61144 6.96888 7.88588 6.94832 8.15699C6.92721 8.42755 6.91666 8.70866 6.91666 9.00033C6.91666 9.29199 6.92721 9.5731 6.94832 9.84366C6.96888 10.1148 6.99999 10.3892 7.04166 10.667ZM12.625 10.667H15.4583C15.5278 10.3892 15.58 10.1148 15.615 9.84366C15.6494 9.5731 15.6667 9.29199 15.6667 9.00033C15.6667 8.70866 15.6494 8.42755 15.615 8.15699C15.58 7.88588 15.5278 7.61144 15.4583 7.33366H12.625C12.6667 7.61144 12.6978 7.88588 12.7183 8.15699C12.7394 8.42755 12.75 8.70866 12.75 9.00033C12.75 9.29199 12.7394 9.5731 12.7183 9.84366C12.6978 10.1148 12.6667 10.3892 12.625 10.667ZM12.2917 5.66699H14.75C14.3472 4.97255 13.8436 4.36838 13.2392 3.85449C12.6353 3.3406 11.9444 2.95866 11.1667 2.70866C11.4167 3.16699 11.6355 3.64255 11.8233 4.13533C12.0105 4.62866 12.1667 5.13921 12.2917 5.66699ZM7.41666 5.66699H10.5833C10.4167 5.05588 10.2014 4.47949 9.93749 3.93783C9.6736 3.39616 9.3611 2.87533 8.99999 2.37533C8.63888 2.87533 8.32638 3.39616 8.06249 3.93783C7.7986 4.47949 7.58332 5.05588 7.41666 5.66699ZM3.24999 5.66699H5.70832C5.83332 5.13921 5.98971 4.62866 6.17749 4.13533C6.36471 3.64255 6.58332 3.16699 6.83332 2.70866C6.05555 2.95866 5.36443 3.3406 4.75999 3.85449C4.1561 4.36838 3.65277 4.97255 3.24999 5.66699Z" />
    <symbol>

</svg>