<svg width="98" height="28" viewBox="0 0 98 28" fill="none" xmlns="http://www.w3.org/2000/svg">
    <path d="M23.5724 16.2806C23.5724 22.5142 18.5737 27.2971 11.9701 27.2971C5.36647 27.2971 0.367737 22.5451 0.367737 16.2806C0.367737 9.98594 5.3666 5.32617 11.9701 5.32617C18.5736 5.32617 23.5724 10.0166 23.5724 16.2806ZM5.36687 16.2806C5.36687 20.0766 8.42175 23.0388 12.0319 23.0388C15.6421 23.0388 18.574 20.0766 18.574 16.2806C18.574 12.4846 15.6428 9.58458 12.0319 9.58458C11.1533 9.58173 10.2827 9.7532 9.4708 10.0891C8.65884 10.425 7.92158 10.9186 7.3017 11.5413C6.68182 12.1641 6.19163 12.9036 5.85951 13.7171C5.5274 14.5306 5.35995 15.4019 5.36687 16.2806Z" fill="#001B59"/>
    <path d="M33.2031 9.52282V14.2131H43.6327V18.2558H33.2031V23.0388H45.1139V27.0807H28.3275V5.48035H44.7744V9.52268L33.2031 9.52282Z" fill="#001B59"/>
    <path d="M60.3291 20.9098H55.3609V27.0807H50.4854V5.48035H59.8659C65.5132 5.48035 68.7223 8.19639 68.7223 12.9787C68.7223 16.3115 67.3027 18.7184 64.6799 19.9523L69.2776 27.0806H63.754L60.3291 20.9098ZM59.8659 16.8357C62.5504 16.8357 64.0935 15.6019 64.0935 13.1333C64.0935 10.7265 62.5504 9.52268 59.8659 9.52268H55.3609V16.8357H59.8659Z" fill="#001B59"/>
    <path d="M78.2728 0V18.832L87.688 13.3701L97.1032 18.832V0H78.2728ZM94.335 2.80008V13.9969L87.688 10.1411L81.0397 13.9969V2.80008H94.335Z" fill="#E66E23"/>
    <path d="M87.6534 18.3076L78.2321 23.6286V27.0811L87.6534 21.6998L97.0739 27.0811V23.6284L87.6534 18.3076Z" fill="#0069B4"/>
</svg>
