<svg width="98" height="64" viewBox="0 0 98 64" fill="none" xmlns="http://www.w3.org/2000/svg">
<path d="M23.5724 34.2806C23.5724 40.5142 18.5737 45.2971 11.9701 45.2971C5.36647 45.2971 0.367737 40.5451 0.367737 34.2806C0.367737 27.9859 5.3666 23.3262 11.9701 23.3262C18.5736 23.3262 23.5724 28.0166 23.5724 34.2806ZM5.36687 34.2806C5.36687 38.0766 8.42175 41.0388 12.0319 41.0388C15.6421 41.0388 18.574 38.0766 18.574 34.2806C18.574 30.4846 15.6428 27.5846 12.0319 27.5846C11.1533 27.5817 10.2827 27.7532 9.4708 28.0891C8.65884 28.425 7.92158 28.9186 7.3017 29.5413C6.68182 30.1641 6.19163 30.9036 5.85951 31.7171C5.5274 32.5306 5.35995 33.4019 5.36687 34.2806Z" fill="#001B59"/>
<path d="M33.2031 27.5229V32.2132H43.6327V36.256H33.2031V41.0389H45.1139V45.0808H28.3275V23.4805H44.7744V27.5228L33.2031 27.5229Z" fill="#001B59"/>
<path d="M60.3291 38.9099H55.3609V45.0808H50.4854V23.4805H59.8659C65.5132 23.4805 68.7223 26.1965 68.7223 30.9788C68.7223 34.3116 67.3027 36.7185 64.6799 37.9524L69.2776 45.0807H63.754L60.3291 38.9099ZM59.8659 34.8358C62.5504 34.8358 64.0935 33.602 64.0935 31.1334C64.0935 28.7266 62.5504 27.5228 59.8659 27.5228H55.3609V34.8358H59.8659Z" fill="#001B59"/>
<path d="M78.2728 18V36.832L87.688 31.3701L97.1032 36.832V18H78.2728ZM94.335 20.8001V31.9969L87.688 28.1411L81.0397 31.9969V20.8001H94.335Z" fill="#E66E23"/>
<path d="M87.6534 36.3076L78.2321 41.6286V45.0811L87.6534 39.6998L97.0739 45.0811V41.6284L87.6534 36.3076Z" fill="#0069B4"/>
</svg>
